<svg xmlns="http://www.w3.org/2000/svg" xmlns:xlink="http://www.w3.org/1999/xlink" id="Livello_2_00000147901698715854530650000017215368273269645478_" x="0px" y="0px" viewBox="0 0 600 67.2" style="enable-background:new 0 0 600 67.2;" xml:space="preserve"><style type="text/css">	.st0{fill:#FFFFFF;}</style><g id="Ebene_1">	<g>		<path class="st0" d="M123.4,24.4c-0.2,0.7-1,3.2-6.6,3.2h-9.6l1.2-6.3l0.5-2.4h9.8c1.6,0,2.5,0.2,3.6,1.1   C123.8,21,124,22.6,123.4,24.4 M121.6,44.7c-1.4,4-4.6,4.6-9.8,4.5h-9l2.4-10.7l10.5-0.1c1.9,0,3.2,0.3,3.9,0.8   C121.3,40,121.9,43.6,121.6,44.7 M141.3,20.7c0.5-3.6,0.6-5.6-0.3-8c-2-5-6.6-7.9-16.4-7.9H94.4L82,63.1h30.6   c7.3,0.1,15.2,0.5,22-6c4.1-4.4,5.9-9.8,4.8-15.7c-1-7-6.4-8.4-8.2-9.4C135.6,30.1,140.3,27.5,141.3,20.7"></path>		<path class="st0" d="M339.5,30.7c-0.7,0.5-2.4,0.7-3.5,0.7h-9.4l2.4-11.7h7.4c2.5,0.4,5.8,1.3,6.4,4.3   C343,27.6,341.5,29.2,339.5,30.7 M358.9,13.7c-3.8-6.7-6.6-8.9-18.2-8.9h-26.2l-2.8,14l-9.3,44.7l17.6-0.1l3.5-17.6l12.9-0.3   c13.9,0,19.1-6.9,21.3-10.3C361.4,29,362.7,20.3,358.9,13.7"></path>		<path class="st0" d="M363.7,34.8l6.2-30h18.3L381,40.7c-1.6,6,0.5,7.2,2.8,8.5c2.7,1.4,7.4,0.6,9.5-0.9c2.6-2.1,3.7-5,4.4-8   L405,4.8h18.1l-8.7,41.8c-1.4,6.2-6.5,13.4-13.7,15.7c-10.4,3.4-25,3.4-33.9-3.2C358.9,53.1,361.9,42.9,363.7,34.8"></path>		<path class="st0" d="M246.3,34.8l6.2-30h18.3l-7.2,35.9c-1.6,6,0.5,7.2,2.8,8.5c2.7,1.4,7.4,0.6,9.5-0.9c2.6-2.1,3.7-5,4.4-8   l7.3-35.6h18.1l-8.7,41.8c-1.4,6.2-6.5,13.4-13.7,15.7c-10.5,3.4-25,3.4-33.9-3.2C241.6,53.1,244.6,42.9,246.3,34.8"></path>		<path class="st0" d="M0,33.5C0,15,15,0,33.5,0s33.5,15,33.5,33.5s-15,33.5-33.5,33.5S0,51.9,0,33.5"></path>		<path class="st0" d="M217.1,27.1l1.2-2.2h0.2l0.2,2.2l1.6,14.1l0.1,1.2h-11.2l0.6-1.2L217.1,27.1L217.1,27.1z M236.9,41.2   l-2.2-14.1l-2.9-18.8l-0.5-3.5h-17.7l-2,3.5l-10.9,18.8l-8.2,14.1L185.7,53l-6,10.4H198l4.5-8.4h19.1l1,8.4h17.7L238.8,53   L236.9,41.2L236.9,41.2z"></path>		<polygon class="st0" points="161.6,48.4 163.1,41.2 166,27.1 169.9,8.3 170.6,4.8 152.6,4.8 151.9,8.3 148,27.1 145,41.2    142.6,53 140.4,63.4 177.2,63.4 179.3,53 180.3,48.4   "></polygon>		<polygon class="st0" points="524.4,27.1 521.6,29.7 527.1,41.2 532.8,53 537.7,63.4 517.5,63.4 512.5,53 507.6,42.7 500.3,49.4    499.4,53 497.1,63.4 479,63.4 481.2,53 483.6,41.2 486.5,27.1 490.4,8.3 491.2,4.8 509.2,4.8 508.5,8.3 505.2,24.1 504.9,25.9    522,8.3 525.4,4.8 548.8,4.8 545,8.3   "></polygon>		<polygon class="st0" points="479.2,27.1 476.2,41.2 473.7,53 471.6,63.4 453.8,63.4 450.5,53 446.6,41.2 443.1,30.6 442.9,30.6    440.7,41.2 438.3,53 436.1,63.4 419,63.4 421.1,53 423.6,41.2 426.5,27.1 430.4,8.3 431.1,4.8 449,4.8 450.2,8.3 456.7,27.1    460,36.8 460.2,36.8 462.1,27.1 466,8.3 466.7,4.8 483.9,4.8 483.1,8.3   "></polygon>		<polygon class="st0" points="549.5,4.8 548.7,8.3 546.4,19.8 562.6,19.8 561.1,27.1 558.2,41.2 555.7,53 553.6,63.4 571.6,63.4    573.8,53 576.2,41.2 579.1,27.1 580.6,19.8 596.9,19.8 599.3,8.3 600,4.8   "></polygon>	</g></g></svg>