<svg xmlns="http://www.w3.org/2000/svg" xmlns:xlink="http://www.w3.org/1999/xlink" id="layer" x="0px" y="0px" viewBox="0 0 600 56.4" style="enable-background:new 0 0 600 56.4;" xml:space="preserve"><style type="text/css">	.st0{fill:#FFFFFF;}</style><path class="st0" d="M66.2,26.8c0-3.9,11.7-3.9,11.7-12.6c0-8.4-10.9-12.3-31-12.3H7.8C2.5,1.6,0,3.3,0,6.4v43 c0,3.9,2.2,5.3,8.4,5.3h32.7c29.3,0,41.1-4.5,41.1-14.2C81.8,30.7,66.2,31.3,66.2,26.8z M30.7,31h14c12.6,0,17.9,3.9,17.9,8.1 c0,5.3-8.7,8.7-20.1,8.7h-9.8c-10.3,0-14-2.5-14-8.4C18.4,33.5,22.6,31,30.7,31z M30.2,8.7h11.7c10.9,0,16.8,3.6,16.8,7.5 c0,4.5-7.3,7.5-17.6,7.5h-8.9c-9.2,0-14-2.5-14-7.5C18.2,11.5,22.3,8.7,30.2,8.7z M111.2,5.3c0-3.9-3.4-5-10.9-5S90.2,2,90.2,5.3 l-0.3,29.3c0,12.3,14.5,20.9,42.7,20.9c23.7,0,39.9-8.4,39.9-20.7V6.6c0-4.7-2.5-6.4-10.3-6.4c-8.4,0-10.6,1.7-10.6,5v28.6 c0,8.4-8.7,12.8-20.4,12.8c-13.1,0-19.8-5.9-19.8-12.8V5.3H111.2z M268.7,10.9c0-2.5-14-10.6-39.9-10.6c-24.3,0-47.2,8.7-47.2,28.2 c0,19,18.4,28.2,45.5,28.2c13.1,0,17.9-3.6,24.9-3.6c3.9,0,7.5,2,13.4,2c3.9,0,7-1.4,7-4.2v-19c0-3.4-2.5-5-7.8-5h-21.5 c-6.1,0-9.2,1.4-9.2,3.9s2.2,3.6,9.8,3.9c8.9,0.6,10.1,2.5,10.1,4.2c0,3.9-10.6,8.7-23.5,8.7c-17.9,0-28.2-7.5-28.2-19.8 c0-11.5,11.7-18.4,29.1-18.4c16.8,0,20.1,5.6,26.5,5.6C261.2,14.8,268.7,13.7,268.7,10.9z M358.9,54.7h7c4.7,0,8.7-1.4,6.7-4.2 L341.6,5c-2.2-3.6-6.1-4.2-10.1-4.2h-10.1c-4.2,0-7.8,1.7-9.8,4.7L282,49.6c-1.4,2.5-1.4,5,5.3,5h5.9c6.4,0,7.8-1.4,10.6-3.6 c5.3-4.7,7.5-5,15.6-5h10.9c7,0,11.5,0.3,13.1,0.6c2.8,0.6,4.2,1.7,6.7,3.9C352.8,53.6,355.3,54.7,358.9,54.7z M338.5,31.6 c1.7,3.1-2.2,6.1-8.7,6.1h-7.5c-5.3,0-9.5-3.1-8.1-5.9l5.6-10.3c1.4-2.8,3.6-4.2,6.7-4.2c2.8,0,5.3,1.1,7,4.7L338.5,31.6z  M435.2,1.1h-56.1c-6.7,0-10.1,1.7-10.1,5c0,3.6,1.7,5,12.6,5c11.2,0,13.4,2.5,13.4,6.1v33.2c0,4.7,4.2,6.1,12,6.1 c8.1,0,12-1.1,12-6.1v-33c0-3.9,2.2-6.4,13.1-6.4c10.3,0,13.1-1.4,13.1-5C445.8,2.8,442.5,1.1,435.2,1.1z M519,1.1h-56.1 c-6.7,0-10.1,1.7-10.1,5c0,3.6,1.7,5,12.6,5c11.2,0,13.4,2.5,13.4,6.1v33.2c0,4.7,4.2,6.1,12,6.1c8.1,0,12-1.1,12-6.1v-33 c0-3.9,2.2-6.4,13.1-6.4c10.3,0,13.1-1.4,13.1-5C529.6,2.8,526.3,1.1,519,1.1z M554.7,0h-8.9c-5.6,0-8.1,2.2-8.1,6.7l-0.3,38 c0,7.3-0.3,11.7,9.8,11.7h6.7c7.8,0,9.5-2.8,9.5-8.4V11.1C563.4,4.2,563.4,0,554.7,0z M586.3,17h-2V5h4.2c1.4,0,2.5,0,3.1,0.3 s1.1,0.6,1.4,1.1s0.6,1.1,0.6,1.7c0,0.8-0.3,1.7-0.8,2.2s-1.4,1.1-2.5,1.1c0.6,0.3,0.8,0.6,1.4,0.8c0.3,0.6,0.8,1.1,1.4,2l1.4,2.2 h-2.2l-1.1-2c-0.8-1.4-1.4-2.2-1.7-2.5c-0.6-0.3-1.1-0.6-1.7-0.6h-1.2v5.6L586.3,17L586.3,17z M586.3,6.7v3.6h2.2 c1.1,0,1.7-0.3,2.2-0.6s0.6-0.8,0.6-1.4s-0.3-1.1-0.6-1.4c-0.6-0.3-1.1-0.3-2.2-0.3L586.3,6.7L586.3,6.7z M588.8,0 c2,0,3.9,0.6,5.6,1.4c1.7,1.1,3.1,2.2,4.2,4.2c1.1,1.7,1.4,3.6,1.4,5.6s-0.6,3.9-1.4,5.6c-1.1,1.7-2.2,3.1-4.2,3.9 c-1.7,1.1-3.6,1.4-5.6,1.4s-3.9-0.6-5.6-1.4c-1.7-1.1-3.1-2.2-4.2-3.9c-1.1-1.7-1.4-3.6-1.4-5.6s0.6-3.9,1.4-5.6 c1.1-1.7,2.2-3.1,4.2-4.2C584.9,0.3,586.9,0,588.8,0z M588.8,1.7c-2.5,0-4.7,0.8-6.4,2.8c-1.7,1.7-2.8,3.9-2.8,6.4s0.8,4.7,2.8,6.4 c1.7,1.7,3.9,2.8,6.4,2.8s4.7-0.8,6.4-2.8c1.7-1.7,2.8-3.9,2.8-6.4s-0.8-4.7-2.8-6.4C593.6,2.8,591.3,1.7,588.8,1.7z"></path></svg>