<svg xmlns="http://www.w3.org/2000/svg" xmlns:xlink="http://www.w3.org/1999/xlink" id="Livello_2_00000044859759515956564760000002752575361369775036_" x="0px" y="0px" viewBox="0 0 800.4 482.9" style="enable-background:new 0 0 800.4 482.9;" xml:space="preserve"><style type="text/css">	.st0{fill:#FFFFFF;}</style><g id="Calque_3">	<g>		<path class="st0" d="M144.8,262.3V172c19.3,0,20.9,13.1,20.9,32.8h1.9v-68.5h-1.8c0,19.6-1.7,33.8-20.9,33.8V84.8   c20.4,0,36.6,3.5,36.6,46.1h1.9v-49h-73v2.5h13v178.3h-13v2.7h74.5V216h-1.9C182.8,257.8,165.3,262.3,144.8,262.3L144.8,262.3   L144.8,262.3z"></path>		<path class="st0" d="M650.3,262.3V172c19.3,0,20.9,13.1,20.9,32.8h1.9v-68.5h-1.8c0,19.6-1.7,33.8-20.9,33.8V84.8   c20.4,0,36.5,3.5,36.5,46.1h1.9v-49h-73v2.5h13v178.3h-13v2.7h74.5V216h-1.9C688.3,257.8,670.8,262.3,650.3,262.3L650.3,262.3   L650.3,262.3z"></path>		<path class="st0" d="M313.3,262.6V84h13.1v-2.1h-47.8v2.5h13.1v178.2h-13.1v2.7h74.6V216h-1.9   C351.3,257.8,333.7,262.6,313.3,262.6C313.3,262.6,313.3,262.6,313.3,262.6z"></path>		<path class="st0" d="M481.9,262.6V84H495v-2.1h-47.8v2.5h13.1v178.2h-13.1v2.7h74.6V216h-1.9C519.9,257.8,502.3,262.6,481.9,262.6   L481.9,262.6L481.9,262.6z"></path>	</g>	<path class="st0" d="M178.4,400.7v-42.4h-61.3v42.4h-6.3v-86.6h6.3v38.2h61.3v-38.2h6.3v86.6H178.4z"></path>	<path class="st0" d="M358.8,375.9c-2.8,5.6-6.6,10.3-11.3,14c-4.7,3.8-10.1,6.5-16.2,8.4c-6.1,1.8-12.4,2.8-18.8,2.8  c-6.5,0-12.8-0.9-18.8-2.8s-11.5-4.6-16.2-8.4c-4.7-3.7-8.4-8.4-11.3-14c-2.8-5.6-4.2-12.2-4.2-19.7V356c0-7.6,1.4-14.1,4.2-19.7  c2.8-5.6,6.6-10.3,11.3-14c4.7-3.8,10.1-6.5,16.2-8.4c6.1-1.8,12.4-2.8,18.8-2.8c6.5,0,12.8,0.9,18.8,2.8  c6.1,1.8,11.5,4.6,16.2,8.4c4.7,3.8,8.4,8.4,11.3,14.1c2.8,5.6,4.2,12.2,4.2,19.8C363.1,363.7,361.6,370.3,358.8,375.9L358.8,375.9  z M352.7,338.7c-2.4-4.9-5.6-9-9.6-12.2c-4-3.2-8.7-5.6-14-7.2c-5.3-1.6-10.8-2.4-16.5-2.4h-0.1c-5.7,0-11.2,0.8-16.5,2.4  c-5.3,1.6-9.9,4-13.9,7.2c-4,3.2-7.2,7.3-9.6,12.2c-2.4,4.9-3.6,10.7-3.6,17.4s1.2,12.4,3.6,17.3c2.4,4.9,5.6,8.9,9.6,12.1  c4,3.2,8.7,5.6,14,7.2c5.3,1.6,10.8,2.4,16.5,2.4c5.7,0,11.3-0.8,16.5-2.4c5.3-1.6,10-4,14-7.2c4-3.2,7.2-7.2,9.6-12.1  c2.4-4.9,3.6-10.7,3.6-17.3S355.1,343.6,352.7,338.7L352.7,338.7z"></path>	<path class="st0" d="M536.7,400.7v-46.2c0-12.5,0-22.4,0.1-29.9c-4.8,7.4-11.4,17.4-19.8,30c-8.4,12.6-18.6,28-30.7,46.1h-4.7  c-12.1-18.3-22.4-33.8-30.7-46.3c-8.3-12.5-14.9-22.5-19.7-29.8c0.1,7.5,0.1,17.5,0.1,29.9v46.2h-6.3v-86.6h6.5  c12.9,19.3,23.7,35.5,32.4,48.6c8.7,13.1,15.4,23.2,20.1,30.3c4.7-7.1,11.4-17.2,20.1-30.3c8.7-13.1,19.5-29.3,32.4-48.6h6.4v86.6  L536.7,400.7L536.7,400.7z"></path>	<path class="st0" d="M614.7,400.7v-86.6h74.9v6H621v32.5h58.1v6H621v36.2h68.6v6H614.7z"></path></g></svg>