<svg xmlns="http://www.w3.org/2000/svg" id="Livello_2" viewBox="0 0 284.48 33.01"><defs><style>.cls-1{fill:#fff;}</style></defs><g id="Layer_1"><polygon class="cls-1" points="28.28 32.44 17.59 25.41 1.07 32.41 10.8 21 0 13.91 16.84 13.91 28.28 .51 28.28 13.91 44.6 13.91 28.28 20.86 28.28 32.44"></polygon><g><path class="cls-1" d="m48.55,7.05c.57,0,1.04-.46,1.04-1.04V1.52c0-.57-.46-1.04-1.04-1.04h-17.5v6.56h17.5Z"></path><path class="cls-1" d="m48.55,32.5c.57,0,1.04-.46,1.04-1.04v-4.49c0-.57-.46-1.04-1.04-1.04h-17.5v6.56h17.5Z"></path><path class="cls-1" d="m283.44.47h-21.87c-.57,0-1.04.47-1.04,1.04v4.5c0,.57.47,1.04,1.04,1.04h7.65v24.44c0,.57.47,1.04,1.04,1.04h4.5c.57,0,1.04-.47,1.04-1.04V7.05h7.65c.57,0,1.04-.47,1.04-1.04V1.51c0-.57-.47-1.04-1.04-1.04"></path><path class="cls-1" d="m196.28,7.66c-.52-1.41-1.29-2.66-2.3-3.72-1.01-1.05-2.24-1.9-3.67-2.52-1.44-.62-3.07-.94-4.86-.94h-11.9c-.57,0-1.04.47-1.04,1.04v29.95c0,.57.47,1.04,1.04,1.04h4.49c.57,0,1.04-.47,1.04-1.04v-7.67s6.36,0,6.36,0c1.79,0,3.41-.31,4.84-.92,1.42-.61,2.65-1.45,3.66-2.51,1-1.05,1.78-2.28,2.32-3.66.53-1.37.8-3.11.8-4.62s-.26-3.03-.77-4.42m-6.2,6.52c-.24.63-.57,1.18-.99,1.63-.42.45-.89.73-1.46.99-.56.25-1.56.4-3.51.4h-5.05V7.05h6.63c.71,0,1.36.13,1.93.38.58.26,1.09.61,1.5,1.05.41.43.73.97.95,1.58.23.64.35,1.34.35,2.07s-.12,1.41-.36,2.05"></path><path class="cls-1" d="m151.56,9.67c-.03.66.14,1.07.39,1.42.28.4.68.74,1.19,1.01.56.29,1.23.52,1.98.69.82.18,1.66.34,2.49.49,1.52.24,3.02.54,4.45.9,1.5.37,2.83.93,3.96,1.66,1.17.76,2.1,1.77,2.77,3,.67,1.24.97,2.82.89,4.7-.08,1.82-.55,3.38-1.39,4.63-.83,1.22-1.89,2.22-3.17,2.97-1.25.73-2.49,1.27-4.02,1.56-1.5.28-3.18.36-4.65.3-3.64-.16-9.02-2.25-11.71-5.94-.21-.3-.48-.8.1-1.39.58-.59,3.35-3.41,3.35-3.41.56-.59,1.1-.17,1.33.17,1.58,2.31,4.72,4.03,7.19,4.14,1.3.06,1.45,0,2.26-.1.74-.1,1.39-.29,2-.57.56-.26,1.03-.6,1.4-1.07.34-.44.54-1.06.59-1.78.05-.69-.14-1.25-.46-1.69-.35-.49-.83-.86-1.4-1.16-.65-.34-1.39-.55-2.21-.71-.88-.16-1.76-.31-2.61-.43-1.4-.18-2.8-.46-4.14-.85-1.39-.4-2.64-.96-3.7-1.67-1.1-.74-2-1.69-2.65-2.84-.67-1.18-.98-2.51-.9-4.19.07-1.7.5-3.18,1.25-4.43.75-1.23,1.73-2.25,2.92-3.02,1.16-.75,2.5-1.31,3.98-1.64,2.87-.65,5.75-.54,8.6.36,3.07.97,5.54,3.33,6.67,5,.21.31.41.79-.03,1.29-.44.5-3.16,3.15-3.16,3.15-.59.56-1.18.43-1.52-.06-1.66-2.44-3.8-3.54-6.29-3.7-2.67-.18-5.66.42-5.78,3.21"></path><path class="cls-1" d="m137.83,4.35c-1.48-1.41-3.23-2.5-5.19-3.23-1.95-.73-4.04-1.1-6.2-1.1s-4.22.37-6.18,1.1c-1.98.73-3.74,1.82-5.23,3.23-1.49,1.41-2.7,3.17-3.58,5.21-.88,2.04-1.33,4.38-1.33,6.96s.44,4.95,1.3,6.97c.86,2.03,2.05,3.78,3.53,5.19,1.48,1.41,3.22,2.5,5.19,3.23,1.95.73,4.03,1.1,6.2,1.1,2.37,0,4.59-.4,6.58-1.19,2.01-.8,3.76-1.94,5.19-3.4,1.43-1.45,2.56-3.21,3.37-5.23.8-2.01,1.21-4.25,1.21-6.67,0-2.57-.45-4.91-1.33-6.96-.88-2.04-2.08-3.79-3.55-5.21m-2.62,16.6c-.5,1.24-1.2,2.28-2.06,3.11-.87.83-1.88,1.46-3.03,1.88-1.16.43-2.42.64-3.73.64s-2.62-.22-3.78-.64c-1.14-.42-2.14-1.05-2.97-1.87-.84-.83-1.52-1.88-2.03-3.12-.51-1.25-.77-2.73-.77-4.39s.26-3.14.77-4.39c.5-1.24,1.19-2.29,2.05-3.12.85-.83,1.86-1.47,3.01-1.9,1.16-.44,2.43-.66,3.77-.66s2.57.22,3.72.66c1.14.43,2.15,1.08,3,1.92.86.85,1.55,1.9,2.05,3.14.51,1.25.77,2.71.77,4.35s-.26,3.15-.77,4.39"></path><path class="cls-1" d="m227.01,4.35c-1.48-1.41-3.23-2.5-5.19-3.23-1.95-.73-4.04-1.1-6.2-1.1s-4.22.37-6.18,1.1c-1.98.73-3.74,1.82-5.23,3.23-1.49,1.41-2.7,3.17-3.58,5.21-.88,2.04-1.33,4.38-1.33,6.96s.44,4.95,1.3,6.97c.86,2.03,2.05,3.78,3.53,5.19,1.48,1.41,3.22,2.5,5.19,3.23,1.95.73,4.03,1.1,6.2,1.1,2.37,0,4.59-.4,6.58-1.19,2.01-.8,3.76-1.94,5.19-3.4,1.43-1.45,2.56-3.21,3.37-5.23.8-2.01,1.21-4.25,1.21-6.67,0-2.57-.45-4.91-1.33-6.96-.88-2.04-2.08-3.79-3.55-5.21m-2.62,16.6c-.5,1.24-1.2,2.28-2.06,3.11-.87.83-1.88,1.46-3.03,1.88-1.16.43-2.42.64-3.73.64s-2.62-.22-3.78-.64c-1.14-.42-2.14-1.05-2.97-1.87-.84-.83-1.52-1.88-2.03-3.12-.51-1.25-.77-2.73-.77-4.39s.26-3.14.77-4.39c.51-1.24,1.19-2.29,2.05-3.12.85-.83,1.86-1.47,3.01-1.9,1.16-.44,2.43-.66,3.77-.66s2.57.22,3.72.66c1.14.43,2.15,1.08,3,1.92.86.85,1.55,1.9,2.05,3.14.51,1.25.77,2.71.77,4.35s-.26,3.15-.77,4.39"></path><path class="cls-1" d="m77.35.47h-4.51c-.57,0-1.04.47-1.04,1.04v19.82c0,.85-.14,1.59-.42,2.2-.28.61-.66,1.13-1.14,1.54-.49.42-1.09.75-1.77.98-.7.23-1.89.35-2.71.35s-2.08-.12-2.8-.36c-.7-.23-1.31-.56-1.82-.99-.49-.41-.88-.93-1.15-1.54-.28-.62-.42-1.36-.42-2.2V1.51c0-.57-.47-1.04-1.04-1.04h-4.49c-.57,0-1.04.47-1.04,1.04v19.98c0,1.83.34,3.48,1.02,4.9.67,1.41,1.61,2.63,2.79,3.62,1.17.98,2.54,1.73,4.07,2.23,1.51.49,3.15.73,4.88.73s3.32-.25,4.83-.73c1.54-.5,2.89-1.25,4.04-2.23,1.15-.99,2.07-2.2,2.74-3.61.68-1.42,1.02-3.07,1.02-4.9V1.51c0-.57-.47-1.04-1.04-1.04"></path><path class="cls-1" d="m108.95,30.76l-7.3-9.06s5.9-2.15,5.9-9.62c0-1.54-.26-3.03-.77-4.42-.52-1.41-1.29-2.66-2.3-3.72-1.01-1.05-2.24-1.9-3.68-2.52-1.44-.62-3.07-.94-4.86-.94h-11.88c-.57,0-1.04.47-1.04,1.04v29.95c0,.57.47,1.04,1.04,1.04h4.48c.57,0,1.04-.47,1.04-1.04V7.05s6.65,0,6.65,0c.71,0,1.36.13,1.93.38.58.26,1.09.61,1.5,1.05.41.43.73.97.95,1.58.23.64.35,1.34.35,2.07s-.12,1.41-.36,2.05c-.24.63-.57,1.18-.99,1.63-.41.45-.89.73-1.46.99-.56.25-1.56.4-3.5.4h-2.78c-.55,0-.97.49-.55,1.18l10.41,13.69c.19.27.51.44.85.44h5.75c.85,0,1.41-.78.63-1.74"></path><path class="cls-1" d="m260.92,30.76l-7.3-9.06s5.9-2.15,5.9-9.62c0-1.54-.26-3.03-.77-4.42-.52-1.41-1.29-2.66-2.3-3.72-1.01-1.05-2.24-1.9-3.67-2.52-1.44-.62-3.07-.94-4.86-.94h-11.88c-.57,0-1.04.47-1.04,1.04v29.95c0,.57.47,1.04,1.04,1.04h4.48c.57,0,1.04-.47,1.04-1.04V7.05s6.65,0,6.65,0c.71,0,1.36.13,1.93.38.58.26,1.09.61,1.5,1.05.41.43.73.97.95,1.58.23.64.35,1.34.35,2.07s-.12,1.41-.36,2.05c-.24.63-.57,1.18-.99,1.63-.41.45-.89.73-1.46.99-.56.25-1.56.4-3.5.4h-2.78c-.55,0-.97.49-.55,1.18l10.41,13.69c.19.27.51.44.85.44h5.75c.85,0,1.41-.78.63-1.74"></path></g></g></svg>