<svg xmlns="http://www.w3.org/2000/svg" xmlns:xlink="http://www.w3.org/1999/xlink" id="Livello_2_00000080178551187377122660000008560922321897523647_" x="0px" y="0px" viewBox="0 0 580 108.1" style="enable-background:new 0 0 580 108.1;" xml:space="preserve"><style type="text/css">	.st0{fill:#FFFFFF;}</style><g id="Livello_1-2">	<g>		<path class="st0" d="M18,31.8c10.8-5.7,26.1-7.1,37-0.6l0.7,0.4L51,39.7c-1.1-1.1-7.3-4.1-12-3.9c-2.9,0.3-5.9,1.5-7.2,4.4   c0.1,0.1-8.5,32.8-8.3,32.8c-0.1,1,0.2,2.9,1.8,3.2c2.4,0.1,6.5,0,6.5,0L38,54.4l25.2,0.1l-7.7,29.4l-41,0   c-3.6-0.8-7.1-2.1-9.6-5.2c-7.1-10.4-5.9-25.1,1-35.4C8.8,38.5,13.6,34.4,18,31.8"></path>		<path class="st0" d="M216.7,26.9l38.9,0c5.6,0,12.1,6.6,14,13.3c4,15.6-3.3,30.7-16.5,39.8c-3.6,2-7.6,4-12,4c0,0.2-38.9,0-38.9,0   L216.7,26.9L216.7,26.9z M230.4,74.7c1.7,1,3.2,0.5,5.4,0.3c1.7-0.5,3.2-1.8,3.9-3.6c0.1,0,7.6-32.5,7.5-32.5   c0.7-1.7-0.9-3.2-2.1-3.3c-1.4-0.1-4.5,0.1-4.9,0C240.3,35.8,230.4,74.8,230.4,74.7"></path>		<path class="st0" d="M273.9,86.2c4.2-9.2,6.4-19.2,11-28.3c0.9-1.9,1.4-3.2,2.4-4C287.2,54,299,75.5,299,75.6   c-0.9,3-4.1,4.4-6.1,6.9c-7.1,7.8-15.9,16.5-26.2,19.7c-1.1,0.3-2.3-0.3-2.4-1.6C264.4,94.2,270.9,91.5,273.9,86.2"></path>		<path class="st0" d="M276.4,100.4c18-12,30.8-32.2,50.1-41.9c1.1-0.3,1.8,1.6,2.4,2.5c-1.1,1.6-3.2,1.9-4.6,3.1   c-13.5,8.7-24.5,21.2-36.8,32.8c-5.8,4.7-12.2,8.6-19,11.2c-0.7-1.1-2.8-3.1-0.2-4L276.4,100.4L276.4,100.4z"></path>		<path class="st0" d="M281.4,26.4c7.4-4.7,15.1-8.7,22.7-13.1h0.8c-1.1,4.3-1.5,7.8-0.4,12.4c0-0.1-17.1,10.1-17.2,10   C284.8,33.2,282.8,29.8,281.4,26.4"></path>		<path class="st0" d="M289.2,39.5c4.4,0.1,9.5,0.3,13.6,1.3l-0.2,0.6l-13.1,7l-0.7-0.4C289.2,44.7,289.6,42.5,289.2,39.5"></path>		<path class="st0" d="M289.9,52.2c5.2-3.3,11.1-6.4,16.7-8.9c2,3.7,3.5,8.1,7.1,10.6c3-0.9,4.1-4.4,6.3-6.5l0.3-0.5   c1.7,2.4,4.1,6.1,5.1,9.2c-8.4,4.6-16.1,11.4-23.5,17.5l-0.4,0.3C301.6,73.9,289.9,52.2,289.9,52.2"></path>		<path class="st0" d="M306,28.9l0.7,0.2c-0.6,2.8-0.5,6-0.5,8.8l-1.6-0.4c-3.6-0.7-8.2-0.7-11.7-1.2C292.8,36.4,306.1,29,306,28.9"></path>		<polygon class="st0" points="363,26.9 369.9,45.5 386.2,26.9 399.2,27 373.5,59 366.9,83.9 339.7,83.9 345.8,58.6 336.3,27   "></polygon>		<polygon class="st0" points="403.6,26.9 450.2,27 447.6,37.3 427.1,37.4 424.4,49.4 437.9,49.3 435.3,60.1 421.7,60.1 418.5,73.1    438.5,73.1 436.1,84 389.7,83.9   "></polygon>		<path class="st0" d="M473.8,26.9l22.7,0l5.5,57l-24.9,0l-1.1-9l-19.2-0.1l-5.5,9.1l-11.8,0L473.8,26.9L473.8,26.9z M462.6,64.7   l12.5-0.1L473.2,48L462.6,64.7L462.6,64.7z"></path>		<path class="st0" d="M521.9,27H566c3.8,0,8.1,2.3,10.7,6c4.1,5.7,4.3,12.5,1.5,18.6c-2.6,4.9-6.8,8.6-11.2,11.7   c-0.1,0.1,4.9,20.5,4.9,20.5L544.9,84c0,0-4.3-15.6-4.3-15.7c-0.2-0.8-0.6-1.6-1.3-1.6c-0.8,0-1.4,1.1-1.7,1.9l-4.3,15.4l-26,0   L521.9,27L521.9,27z M541,57c0,0,5.5,0.1,5.6,0c2.5,0,3.9-2.3,4.7-5.2c0,0,3.2-12.1,3.2-12.2c0.3-1.5,0.4-3.7-1.3-4   c-1.3-0.1-6.5,0-6.5-0.1C546.6,35.6,541,57,541,57"></path>		<path class="st0" d="M131.3,55.7c-3.7,18-17.3,29.5-35.9,29.6c-18.9,0-28-13.3-25-29.6c3.2-17.7,18.1-29.6,35.1-29.6   C123.6,26.1,134.8,38.5,131.3,55.7 M92.8,73.9c0,0-1.1,3.2,3.2,3.2c4.3,0,5.9-5.1,5.9-5.1l6.8-31.9c0,0,1.9-4.8-2.6-4.8   c-4.5,0-5.7,4.8-5.7,4.8L92.8,73.9L92.8,73.9z"></path>		<path class="st0" d="M200.8,55.7c-3.7,18-17.3,29.5-35.8,29.6c-18.9,0-28-13.3-25-29.6C143.2,38,158,26.2,175,26.1   C193.1,26.1,204.3,38.5,200.8,55.7 M162.4,73.9c0,0-1.1,3.2,3.2,3.2s5.9-5.1,5.9-5.1l6.8-31.9c0,0,1.9-4.8-2.6-4.8   s-5.7,4.8-5.7,4.8L162.4,73.9L162.4,73.9z"></path>		<path class="st0" d="M311.4,6.6c8.5-7.5,20.3-5.2,30.2-5.4C356.9,1.9,374,3.3,388-0.3c0.6,2.7-0.8,5.5-2.7,7.7   c-9.8,9.5-24.9,6.6-37.7,6.1l-0.4,0.4c0.9,2,4.7,1,4.5,3.3c-2,2.2-5,2.8-7.7,2.8l-0.6,0.7c0.3,0.6,1.9,0.4,1.6,1.7   c-3.5,2.8-9,3.7-13,1.7l-0.6,0.6c0.6,3.9-0.4,7.3-1.8,10.8c-1.3,0.5-2.2-0.8-3.2-1.5c-1.5,2-1.2,5.2-2.6,7.4   c-1.7,0.1-2.6-1.7-3.9-2.3c-1.6,3.8-2.9,8.1-5.8,11c-6.6-4.4-5.9-13-5-20.4c-0.4-2.4-2.9-4.6-3.1-7.5   C305.7,16.2,306.6,10.4,311.4,6.6 M316.6,25.1c1.1-0.4-0.4-2.2,0.4-3.3c-0.3-1.9-2.6-1-3.7-1C314.6,22,316,23.2,316.6,25.1    M318.6,15.7c1.1,1,3,0.6,4.3,0.4c1.5-4.3,6.9-0.3,8.4-4.7c1.2-0.1,2.7-0.5,3.9-1.3c0-0.2,0.1-0.5-0.2-0.6c-0.3,0.1-0.8-0.2-1,0.3   c-4.7-3.5-5.9,3.8-10.5,1.9C322.7,13.8,320.6,15.1,318.6,15.7"></path>	</g></g></svg>