<svg xmlns="http://www.w3.org/2000/svg" xmlns:xlink="http://www.w3.org/1999/xlink" id="Livello_1" x="0px" y="0px" viewBox="0 0 650 126.9" style="enable-background:new 0 0 650 126.9;" xml:space="preserve"><style type="text/css">	.st0{fill-rule:evenodd;clip-rule:evenodd;fill:#FFFFFF;}</style><g>	<path class="st0" d="M26.2,20.4l-0.9,0.4L25,21.5v69.7l0.3,0.9l0.9,0.3h35.2l0.7-0.3l0.4-0.9v-4.4l-0.1-0.7l0.1-0.6l-0.4-0.9  c-0.3-0.3-0.4-0.6-0.7-0.6H37.8V21.5l-0.1-0.7l-1-0.4l-0.7,0.3l-0.4-0.3H26.2L26.2,20.4z"></path>	<path class="st0" d="M107.7,44.4v36.4c-3.6,3.6-8,5.4-12.8,5.4c-4.4,0-7.6-1.5-9.2-4.7c-1-1.7-1.5-4.8-1.3-9.8V44.4l-0.4-0.7  l-1-0.4h-9.6l-1,0.4l-0.4,0.7v30.9c0,6.3,1.5,10.9,4.4,13.5c3.6,3.6,8.7,5.5,15.7,5.5c6.5,0,11.6-1.9,15.7-5.5v2.5l0.6,0.9l0.7,0.3  h9.9l1-0.3l0.1-0.9V44.4l-0.1-0.7l-1-0.4H109l-0.7,0.4L107.7,44.4L107.7,44.4z"></path>	<path class="st0" d="M185.1,46.9L185.1,46.9l-4.1,3.6c-1.3-2.8-3.5-4.7-6.1-6.1c-2.6-1.2-5.8-1.9-9.5-1.9c-6.5,0-12.1,2.2-16.4,6.3  v-2.9l-0.6-1l-0.9-0.4h-9.7l-1,0.4l-0.1,1v46.6l0.1,1l1,0.4h9.7l0.9-0.4l0.6-1V57.8c3.1-4.7,7.3-6.8,12.1-6.8c5.1,0,8.3,2.2,9,6.5  l0.1,34.9l0.3,1l1,0.4h9.6l0.7-0.4l0.6-1V57.8c4.1-4.7,8.1-6.8,12.8-6.8c4.7,0,7.6,1.9,8.3,6.1l0.1,6.3v29.1l0.6,1l0.9,0.4h9.7  l0.7-0.4l0.4-1V62.9c0-7.1-0.9-11.9-2.6-14.1v-0.3c-2.6-4.1-7.6-6-14.1-6C194.1,42.5,189.2,43.9,185.1,46.9L185.1,46.9z"></path>	<path class="st0" d="M241.1,32c-1.7,0-3.3-0.7-4.7-2.2c-1.2-1.2-1.9-2.6-1.9-4.7c0-1.6,0.7-3.1,1.9-4.4c1.3-1.5,2.9-2.2,4.7-2.2  c1.7,0,3.3,0.7,4.7,2.2c1.2,1.3,1.9,2.8,1.9,4.4c0,2-0.7,3.5-1.9,4.7C244.5,31.3,242.9,32,241.1,32L241.1,32L241.1,32z M236.3,44.4  l-1,0.3l-0.4,0.9v46.9l0.4,1l1,0.4h9.6l1-0.4l0.3-1V45.5l-0.3-0.9l-1-0.3H236.3L236.3,44.4z"></path>	<path class="st0" d="M294.5,42.5c-6.8,0-12.7,2.2-17.5,6.5v-3.2l-0.3-1l-1-0.4h-9.5c-0.4,0-0.7,0.3-0.9,0.4l-0.6,1v46.6l0.6,1  l0.9,0.4h9.5l1-0.4l0.3-1V57.9c3.3-4.5,8-6.7,13.5-6.7c5.1,0,8.3,1.6,9.8,5.2c0.1,1.5,0.4,4.7,0.4,9.5v26.5l0.3,1l0.9,0.4h9.8  l1-0.4l0.4-1V59.7l-0.7-6.8v-0.1c-0.7-2.8-2.5-4.9-4.7-6.5C304.1,43.7,299.6,42.5,294.5,42.5L294.5,42.5z"></path>	<path class="st0" d="M334.2,60l0.4-0.6c3.9-5.1,9.3-7.7,15.9-7.7c4.5,0,8,1.5,10.2,4.1l0,0c1.2,1.5,1.6,3.9,1.9,7.3l-10.5-0.9  c-8.4-0.3-14.7,1.6-19.4,5.5l0,0c-4.1,3.3-6.3,7.6-6.3,12.1c0,4.4,1.6,8.3,5.2,11.5c3.9,3.1,9,4.5,15.3,4.5  c6.5,0,11.6-1.6,15.9-5.2v2.2l0.4,0.9l0.7,0.3h9.8l0.9-0.3l0.3-0.9V64.5l-0.4-7.7c-0.7-2.9-2-5.4-3.9-7.6V49  c-4.1-4.2-9.9-6.4-17.9-6.4c-12.4,0-19.9,4.9-22.8,14.8v0.7l0.3,0.4l0.4,0.6l2.9,0.7H334.2L334.2,60L334.2,60z M362.9,71.3v11.4  c-4.2,3.2-8.3,4.9-12.4,4.9c-3.2,0-5.7-0.7-7.9-2.2c-2.2-1.7-3.1-3.6-3.1-6.1c-0.3-2.5,0.7-4.4,2.9-6.1c2.3-2.2,6-3.1,10.6-3.1  L362.9,71.3L362.9,71.3z"></path>	<path class="st0" d="M403.8,48.8v-2.9l-0.4-1l-1-0.4h-9.9l-1,0.4l-0.1,1v46.6l0.1,1l1,0.4h9.9l1-0.4l0.4-1V57.5  c2.8-3.2,5.8-4.8,10-4.8c1.6,0,4.4,0.7,8,1.9h0.7l0.7-0.4l0.1-0.7v-7.6l-0.1-0.7l-0.7-0.4c-2-0.7-3.9-1.3-6.1-1.3  C411.8,43.4,407.4,45.1,403.8,48.8L403.8,48.8z"></path>	<path class="st0" d="M469.3,53.8c2,1.2,4.2,3.3,6.4,6.5l0.7,0.7h0.7l3.1-1l1-0.4v-1c-1-3.6-2.5-6.7-4.7-9.2l-3.8-2.9  c-4.2-2.6-9.3-3.9-15.1-3.9c-8.4-0.1-15.4,2.5-20.5,7.9c-5.1,5.1-7.6,11.4-7.6,19.4c0,7.7,2.5,14.1,7.6,18.9l0,0  c5.1,4.7,11.6,7,19.6,7c6.7,0,12.4-1.6,16.7-4.8c3.3-2.5,6-6.1,7.7-11.2V79l-0.3-0.4l-0.7-0.4l-3.1-0.7h-0.7l-0.7,0.4  c-1.5,2.6-3.6,4.8-6.5,6.5c-3.2,1.7-6.4,2.6-10,2.6c-4.5,0-8.4-1.5-11.6-4.4c-3.3-3.3-5.1-8-5.1-13.8c0-5.5,1.7-9.9,5.1-13.1v-0.1  c3.2-3.2,7.3-4.7,11.9-4.7C462.7,50.9,466.2,52,469.3,53.8L469.3,53.8z"></path>	<path class="st0" d="M499.1,97.5c2.8-5.4,3.2-11.9,2-19.4c-1.3-6.5,2.3-10,10.6-10c5.1,0,10.6,1.3,17,3.9c6,2.5,11.1,5.4,14.7,8.7  c9.5,9,14.4,17,14.6,24c0,7-4.8,12.7-14.7,16.7c-8.3,3.6-14.6,5.4-19.2,5.4c-3.9,0-7.7-1-11.6-3.2c-3.6-1.7-8-5.1-13.4-9.8  c-2.6-2.6-4.1-4.8-4.1-7c0-1.2,0.4-2.5,1.2-4.1L499.1,97.5L499.1,97.5z"></path>	<path class="st0" d="M574.6,33.9l0.7,5.1c0,2-0.7,3.5-2.5,4.7l-5.8,3.2c-7,3.3-12.4,9.2-16.4,17.2c-1.7,3.2-3.6,4.8-6.4,4.8  c-4.4,0-9.6-3.8-15.7-11.8c-5.5-6.8-9.7-14.1-12.8-21.7c-2.8-6.3-3.9-11.6-3.9-16.2c0-13,7-19.2,21.4-19.2c2.9,0,6.3,0.4,10.3,1.5  c9.7,1.9,16.6,5.4,20.4,10.2C566.6,14.8,570.3,22.1,574.6,33.9L574.6,33.9z"></path>	<path class="st0" d="M602.7,49.5l2.5,6.1c2.6,7,8,12.4,15.4,16.4c2.9,1.7,4.4,3.6,4.4,6.3c0,4.7-3.8,9.8-11.4,15.3  c-7.6,5.7-14.6,8.7-21.5,9.8l-10.2,1c-15.3,0-23.1-5.7-23.1-16.7c0.3-3.6,0.6-6.8,1.3-9.5c2.6-10,6.3-16.7,10.6-20.4  c3.3-2.9,11.2-6.1,23-9.8l4.4-0.7C600.3,47.3,601.7,48,602.7,49.5L602.7,49.5z"></path></g></svg>