<svg xmlns="http://www.w3.org/2000/svg" xmlns:xlink="http://www.w3.org/1999/xlink" id="Livello_1" x="0px" y="0px" viewBox="0 0 600 79.1" style="enable-background:new 0 0 600 79.1;" xml:space="preserve"><style type="text/css">	.st0{fill:#FFFFFF;}</style><g>	<polygon class="st0" points="54.7,43.8 38.9,1.9 27.7,1.9 0,76.6 16.8,76.4 33.2,33.9 49.1,76.4 61,76.4 88.1,1.9 69.7,1.9  "></polygon>	<path class="st0" d="M161.9,0c-11.1,0-20.3,3.8-27.6,11.3s-11,17-11,28.4c0,11.1,3.7,20.3,11,27.7c7.4,7.4,16.9,11.1,28.5,11.1  c7.5,0,14-1.3,19.5-4c5.5-2.7,10.1-6.8,14.1-12.3l-15.7-7.5c-5,4.9-11,7.3-18,7.3c-5.9,0-10.6-1.5-14.4-4.7  c-3.8-3.1-6.1-7.3-6.9-12.6h60.1l0.1-3.6c0-12.3-3.7-22.3-11-29.8C183.2,3.7,173.6,0,161.9,0z M142.2,29.9c2.1-4.6,4.4-7.9,6.8-9.7  c3.9-2.9,8.5-4.4,13.7-4.4c4.8,0,9,1.3,12.7,3.9c3.6,2.6,6.1,6,7.3,10.1H142.2z"></path>	<polygon class="st0" points="448,1.9 431.6,44.4 415.8,1.9 403.9,1.9 376.7,76.4 395.1,76.4 410.2,34.5 426,76.4 437.2,76.4   453.3,34 468.3,76.4 486.6,76.4 459.8,1.9  "></polygon>	<path class="st0" d="M281.1,63.8c-9.3-19.1-18.7-38-28.1-57c-2.9-6-7.7-8.2-12.5-6c-4.8,2.2-6,7.2-2.9,13.5  c7.7,15.5,15.4,31.1,23,46.7c2.2,4.4,4.2,8.8,6.5,13c2.1,3.7,5.5,5.1,9.8,3.9c4.1-1.1,5.9-4,5.8-9.4  C282.5,67.8,282,65.7,281.1,63.8z"></path>	<path class="st0" d="M350.2,0.5c-4.8-1.4-8.2,0.7-10.4,4.7c-4,7.7-7.8,15.5-11.5,23.4c-2.6,5.4-0.9,10.3,3.6,12.5  c4.6,2.3,9.4,0.7,12.1-4.6c4-7.7,7.8-15.5,11.5-23.4c0.6-1.2,0.8-2.7,0.9-3.4C356.3,4.8,354.4,1.7,350.2,0.5z"></path>	<path class="st0" d="M322.2,63.8c-9.3-19.1-18.7-38-28.1-57c-2.9-6-7.7-8.2-12.5-6s-6,7.2-2.9,13.5c7.7,15.5,15.4,31.1,23,46.7  c2.2,4.4,4.2,8.8,6.5,13c2.1,3.7,5.5,5.1,9.8,3.9c4.1-1.1,5.9-4,5.8-9.4C323.6,67.8,323.1,65.7,322.2,63.8z"></path>	<path class="st0" d="M600,41.1c0-12.3-3.7-22.3-11-29.8C581.6,3.8,572.1,0,560.4,0c-11.1,0-20.3,3.8-27.6,11.3  c-7.3,7.5-11,17-11,28.4c0,11.1,3.7,20.3,11,27.7c7.4,7.4,16.9,11.1,28.5,11.1c7.5,0,14-1.3,19.5-4c5.5-2.7,10.1-6.8,14.1-12.3  l-15.7-7.4c-5,4.9-11,7.3-18,7.3c-5.9,0-10.6-1.5-14.4-4.7c-3.8-3.1-6.1-7.3-6.9-12.6H600L600,41.1z M570.1,29.3  c-2.1,0.2-4.1,0.6-6.2,0.9c-4,0.5-7.8-0.3-11.4-2.2c-2.4-1.2-3.7-3.2-4.6-5.7c7.2-2.9,14.4-2.7,21.8-0.5  c-8.7-4.6-26.6-4.3-35.7,12.1c0.1-0.3,0.3-0.6,0.4-0.9c4-8.6,14-18,27.4-17.6c12.8,0.4,23.8,8.8,26.4,20  C581.6,30.1,577.5,28.4,570.1,29.3z"></path></g></svg>