<svg xmlns="http://www.w3.org/2000/svg" xmlns:xlink="http://www.w3.org/1999/xlink" id="Livello_2_00000040542012607482121440000016203777386028601534_" x="0px" y="0px" viewBox="0 0 649.9 60.6" style="enable-background:new 0 0 649.9 60.6;" xml:space="preserve"><style type="text/css">	.st0{fill:#FFFFFF;}</style><g id="Layer_1">	<g>		<g>			<path class="st0" d="M46.7,11.7l-6.3,11.1H14L7.7,11.7c-0.1-0.3,0-0.6,0.5-0.3c0.5,0.2,4.9,2.2,5.2,2.4c0.3,0.1,0.2,0.3,0.1,0.6    c-0.1,0.3-1.1,3.5,1.8,3.5c2.8,0,2.5-2.8,2.5-2.9c0-0.6-0.4-1.4-0.3-1.4c0.2-0.1,2-0.7,2.1-0.7c0.1-0.1,0.5,4.1,3.5,4.1    c2.2,0,2.2-1.9,2.2-2.1v-0.4l-2.5-2.5c-0.1-0.1-0.1-0.2-0.1-0.3c0-0.1,0-0.3,0.1-0.3L27,5.5c0.1-0.1,0.2-0.1,0.2-0.1    c0.1,0,0.1,0,0.2,0.1l4.1,5.7l0,0.1l0.1,0.1c0.1,0.1,0.1,0.2,0.1,0.2c0,0.1,0,0.2-0.1,0.3l-2.5,2.5v0.4c0,0.2,0,2.1,2.2,2.1    c3.1,0,3.4-4.1,3.5-4.1c0.1,0.1,1.9,0.6,2.1,0.7c0.1,0-0.3,0.8-0.3,1.4c0,0.1-0.3,2.9,2.5,2.9c3,0,1.9-3.3,1.8-3.5    c-0.1-0.3-0.2-0.5,0.1-0.6c0.3-0.1,4.6-2.1,5.2-2.4C46.8,11.1,46.9,11.5,46.7,11.7 M40.4,26.3c-1.4,0-1.4,1-1.4,1V37    c0,4.8-5.3,5.7-7.5,5.7c-1.2,0-2.9-0.3-2.9-0.8c0-0.6,1.9-0.6,3.2-1.2c1.6-0.8,1.5-2.8,1.5-3.2V27.3c0,0,0-0.9-1.4-0.9v-0.9h8.5    C40.4,25.5,40.4,26.3,40.4,26.3 M33,50.7L33,50.7l-4.5-0.1l3.7,2.5c0,0,0,0,0,0.1c0.1,0.1,0,0.2,0,0.3L28.7,56    c-0.1,0.1-0.2,0-0.3-0.1c0-0.1-0.1-0.1,0-0.1l-1.3-4.3l-1.3,4.3c0,0,0,0.1,0,0.1c0,0.1-0.2,0.1-0.3,0l-3.4-2.5    c-0.1-0.1-0.1-0.2,0-0.3l3.7-2.6l-4.4,0.1h-0.1c-0.1-0.1-0.1-0.1-0.1-0.2l1.3-4.1c0-0.1,0.2-0.2,0.3-0.1c0,0,0,0,0,0l3.5,2.7    l-1.5-4.2c0,0,0-0.1,0-0.1c0-0.1,0.1-0.2,0.2-0.2h4.3c0.1,0,0.2,0.1,0.2,0.2v0L27.9,49l3.5-2.7c0,0,0.1,0,0.1,0    c0.1,0,0.2,0,0.2,0.1l1.3,4.1C33.1,50.6,33,50.7,33,50.7 M19.9,42.8c-2.8,0-5.2-0.9-5.2-0.9l-0.3-3.7c0,0,2.2,1.6,5.6,1.6    c1.8,0,2.7-0.5,2.7-1.6c0-2.1-8.6-1.9-8.6-8c0-4.4,5.5-5.1,7.3-5.1c4,0,6,1.3,6,1.3v3.1c0,0.6-1.9-1.4-4.7-1.4    c-2.5,0-2.9,1.1-2.9,1.6c0,2.5,8.4,1.2,8.4,7.8C28.1,43,20.9,42.8,19.9,42.8 M17.5,6.6c1.5,0,2.7,1.2,2.7,2.7s-1.2,2.7-2.7,2.7    c-1.5,0-2.7-1.2-2.7-2.7S16,6.6,17.5,6.6 M36.9,6.6c1.5,0,2.7,1.2,2.7,2.7s-1.2,2.7-2.7,2.7c-1.5,0-2.7-1.2-2.7-2.7    S35.4,6.6,36.9,6.6 M27.2,0C10.2,0-0.1,3.9-0.1,30.2s10.3,30.3,27.3,30.3s27.3-4,27.3-30.3S44.3,0,27.2,0"></path>			<path class="st0" d="M92.5,24.8c12.7,1,15.9,2.7,15.9,13.2c0,7.6,0.3,15.1-18.6,15.1c-10.9,0-18.2-0.3-18.2-15.3h11    c0,4.7,1.6,5.2,7.2,5.2s7.2-0.4,7.2-4.2s-0.6-3.9-6-4.3l-2.5-0.2c-10.6-0.8-16.8-0.7-16.8-13.8s6.9-14,18.1-14    c9.4,0,17.4,0.2,17.4,12.8v1.9h-11c0-4.7-1.8-4.7-6.4-4.7c-6.2,0-6.7,1.3-6.7,3.9c0,3.7,1.7,3.8,4.7,4L92.5,24.8L92.5,24.8z"></path>			<path class="st0" d="M133.1,30.2c4.5-0.2,5.1-0.7,5.1-6.6c0-4.7-0.7-6.2-5.1-6.2h-7.9v12.8H133.1z M113.8,52.6V6.8h21.6    c10.6,0,14.6,4.8,14.6,16.8c0,12.9-2.7,17.3-14.6,17.3h-10.2v11.7L113.8,52.6L113.8,52.6z"></path>		</g>		<polygon class="st0" points="166.3,25.2 184.6,25.2 184.6,33.7 166.3,33.7 166.3,42.6 186.2,42.6 186.2,52.6 154.8,52.6    154.8,6.8 185.8,6.8 185.8,16.8 166.3,16.8   "></polygon>		<path class="st0" d="M211.1,16H211l-5.2,19.9h10.6L211.1,16L211.1,16z M203.3,44.7l-2.1,7.9h-11.9l12.9-45.8h17.4l13.1,45.8h-11.7   l-2.2-7.9H203.3L203.3,44.7z"></path>		<g>			<path class="st0" d="M255.5,29.8c4.9,0,4.8-1.9,4.8-7.1c0-4.1-1-5.2-4.8-5.2h-8.9v12.4C246.7,29.8,255.5,29.8,255.5,29.8z     M235.2,6.8h22.1c9.9,0.2,14.8,2.5,14.8,13.9c0,7.6,0,12.1-8.1,14.1v0.5c4.7,0.2,7.7,3,7.7,8.1v9.2h-11.5v-6.4    c0.1-3.4-1.3-5.7-4.7-5.7h-8.9v12.1h-11.5L235.2,6.8L235.2,6.8z"></path>			<path class="st0" d="M310.2,31.8c-2.7,0.3-2.6,3.2-2.6,5.5c0,6.2,2.9,6,8.1,6c1.7,0,3.9,0,5.9-1L310.2,31.8L310.2,31.8z     M328.4,48.8c-2.8,4.2-8,4.2-12.7,4.2c-11,0-18.7-1.2-18.7-14.5c0-5.8,1.1-11.9,7.6-12c-2.7-2.5-3.2-3.9-3.2-7.7    c0-10.5,4.8-12.3,14.3-12.3c9.5,0,15,1.5,14.9,12.5v2.3h-9.8c0-2.6-0.1-3.9-0.8-4.8c-0.7-0.8-1.9-1-4.3-1c-3,0-3.8,0.7-3.8,4.1    c0,2.1,0.8,3.1,2.3,4.5l10.5,10v-6h9.1v9c0,1.5-0.4,3.1-1.1,4.5l4.7,4.6l-5.1,6.5L328.4,48.8L328.4,48.8z"></path>			<path class="st0" d="M388.9,6.8v31.7c0,12.3-3.4,14.5-15.5,14.5c-12,0-14.3-3-14.3-15.7v-3.8h10.8v3.8c0,3.8,0.5,5.1,3.5,5.1    c3.6,0,4-1,4-3.8V6.8H388.9z"></path>		</g>		<path class="st0" d="M413.4,16h-0.1l-5.2,19.9h10.6L413.4,16L413.4,16z M405.6,44.7l-2.1,7.9h-11.9l12.9-45.8h17.4l13.1,45.8   h-11.7l-2.3-7.9H405.6L405.6,44.7z"></path>		<path class="st0" d="M474.1,35.3v1.3c0,5-0.1,9.5-4,13c-3.9,3.4-8.6,3.4-13.6,3.4c-11.7,0-20.2-0.6-20.2-17.3V23.8   c0-15.2,7.6-17.3,20.2-17.3c11.8,0,17.3,1.3,17.5,15v1.8h-11.8v-1.8c-0.4-4.1-3.1-4.4-7-4.4c-6.5,0-7.2,2.2-7.2,8.7v7.2   c0,6.8,0.3,9.5,7.2,9.5c4.8,0,7-0.4,7-5.7v-1.3H474.1z"></path>		<polygon class="st0" points="491.1,24.1 494.5,24.1 505.5,6.8 519.4,6.8 504.3,29.3 520.7,52.6 506.4,52.6 494.5,34.7 491.1,34.7    491.1,52.6 479.6,52.6 479.6,6.8 491.1,6.8   "></polygon>		<g>			<path class="st0" d="M542.1,24.8c12.7,1,15.9,2.7,15.9,13.2c0,7.6,0.3,15.1-18.6,15.1c-11,0-18.2-0.3-18.2-15.3h11    c0,4.7,1.6,5.2,7.2,5.2c5.6,0,7.1-0.4,7.1-4.2s-0.6-3.9-6-4.3l-2.5-0.2c-10.6-0.8-16.8-0.7-16.8-13.8s6.9-14,18.2-14    c9.4,0,17.4,0.2,17.4,12.8v1.9h-11c0-4.7-1.9-4.7-6.4-4.7c-6.2,0-6.7,1.3-6.7,3.9c0,3.7,1.6,3.8,4.7,4L542.1,24.8L542.1,24.8z"></path>			<path class="st0" d="M589.8,34.8V24.5c0-6.8-2.1-7.5-8.1-7.5s-7.9,0.7-8,7.5v10.3c0.2,6.8,2.1,7.5,8,7.5    C587.7,42.3,589.8,41.7,589.8,34.8 M561.9,36.2V23.2c0-14.1,8.2-16.8,19.8-16.8c11.6,0,19.9,2.7,19.9,16.8v12.9    c0,14.1-8.2,16.8-19.9,16.8S561.9,50.3,561.9,36.2"></path>		</g>		<polygon class="st0" points="618.5,52.6 607,52.6 607,6.8 626.4,6.8 638.7,42 639.1,42 638.4,6.8 649.9,6.8 649.9,52.6    630.4,52.6 618.3,17.4 617.8,17.4   "></polygon>	</g></g></svg>