<svg xmlns="http://www.w3.org/2000/svg" xmlns:xlink="http://www.w3.org/1999/xlink" id="Livello_2_00000142178237865360150990000000742421187436681638_" x="0px" y="0px" viewBox="0 0 599.9 332.8" style="enable-background:new 0 0 599.9 332.8;" xml:space="preserve"><style type="text/css">	.st0{fill:#FFFFFF;}</style><g id="Livello_1_copia_5">	<g>		<path class="st0" d="M185.2,204.6c3.7,4.2,8.8,6.7,14.5,6.9c0.2,0,0.5,0,0.7,0c6.2,0,11.4-3.1,14.1-6.1l8.1-8.4   c2.6,2.1,5.3,4.2,8.1,6c1.5,1,3,2,4.5,2.9c5.3,3.2,11,6.1,16.9,8.4c0.8,0.3,1.7,0.7,2.5,1c2.5,0.9,5.1,1.8,7.8,2.5   c9.7,2.7,19.9,4.2,30.4,4.2s20.7-1.5,30.4-4.2c2.6-0.8,5.2-1.6,7.8-2.5c1.1-0.4,2.2-0.8,3.3-1.3c4.3-1.7,8.5-3.7,12.5-6   c1.2-0.7,2.4-1.4,3.6-2.1c1.5-0.9,3-1.9,4.5-2.9c2.8-1.9,5.5-3.9,8.1-6l0,0l8.1,8.4c2.8,3,7.9,6.1,14.1,6.1c0.2,0,0.5,0,0.7,0   c5.7-0.2,10.8-2.7,14.5-6.9c6-6.9,14.7-18.4,21.9-34.1c8.6-18.8,13-38.8,13-59.5c0-43.5-19.5-74.5-31.2-89.2l-8-10l-9,9l-9.4,9.4   l-0.1,0.1l-0.1,0.1c-0.6,0.7-2.2,2.4-3.4,5c-0.9-1-1.8-2-2.8-2.9c-0.9-0.9-1.8-1.8-2.8-2.7c-0.9-0.9-1.9-1.7-2.9-2.6   c-0.2-0.2-0.4-0.3-0.5-0.5c-2.1-1.9-4.4-3.6-6.7-5.3c-0.8-0.6-1.5-1.1-2.3-1.7c-0.9-0.6-1.8-1.2-2.6-1.8c-0.8-0.5-1.5-1-2.3-1.5   c-1.8-1.1-3.6-2.2-5.5-3.2c-2-1.1-4-2.1-6.1-3.1c-1.2-0.6-2.4-1.1-3.6-1.6c-2.5-1.1-5-2-7.6-2.9c-2.3-0.8-4.7-1.5-7.1-2.1   c-1.3-0.4-2.6-0.7-4-1c-2.5-0.6-5-1-7.6-1.4c-1.8-0.3-3.7-0.5-5.6-0.7c-3.7-0.4-7.5-0.6-11.4-0.6c-8.6,0-17,1-25.1,2.8   c-1.8,0.4-3.6,0.9-5.3,1.4c-0.9,0.2-1.7,0.5-2.6,0.8c-1.7,0.5-3.5,1.1-5.2,1.7c-0.9,0.3-1.7,0.6-2.5,1c-5,2-9.9,4.3-14.6,7   c-0.8,0.4-1.5,0.9-2.3,1.4c-7.6,4.6-14.7,10.2-20.9,16.4c-0.9,0.9-1.9,1.9-2.8,2.9l0,0c-1.3-2.6-2.8-4.3-3.4-5l-0.1-0.1l-0.1-0.1   l-9.4-9.4l-9-9l-8,10c-11.6,14.6-31.2,45.7-31.2,89.2c0,20.7,4.4,40.7,13,59.5C170.6,186.1,179.2,197.7,185.2,204.6L185.2,204.6z    M292.9,210.6c-22.9,0-44.6-7.7-62.2-21.8l62.2-64.7l62.2,64.7C337.5,202.9,315.8,210.6,292.9,210.6z M222.4,40.6   c18.8-18.8,43.8-29.2,70.4-29.2s51.6,10.4,70.4,29.2c4.7,4.7,8.9,9.8,12.5,15.2c0,0,0,0,0,0c0.2,0.3,0.3,0.5,0.5,0.8   c6.2,9.6,13.1,23.9,15.4,41.9c0,0.1,0,0.1,0,0.2c0.1,1.2,0.3,2.4,0.4,3.6c0,0.1,0,0.3,0,0.4c0,0.5,0.1,1.1,0.1,1.6   c0,0.3,0,0.6,0.1,0.9c0,0.4,0,0.9,0.1,1.3c0,0.4,0,0.8,0,1.2c0,0.4,0,0.7,0,1.1c0,0.1,0,0.2,0,0.4c-7.9-6-21.5-16-36-26.1   C343,74,331.5,66.6,322.2,61.3c-17.5-9.9-24.8-11.2-29.3-11.2c-4.5,0-11.9,1.3-29.3,11.2c-9.3,5.3-20.8,12.7-34.2,21.9   c-14.5,10-28.1,20.1-36,26.1c0-0.1,0-0.2,0-0.4c0-0.4,0-0.7,0-1.1c0-0.4,0-0.8,0-1.2c0-0.4,0-0.9,0.1-1.3c0-0.3,0-0.6,0.1-0.9   c0-0.5,0.1-1.1,0.1-1.6c0-0.1,0-0.3,0-0.4c0.1-1.2,0.2-2.4,0.4-3.6c0-0.1,0-0.1,0-0.2c2.3-18.1,9.1-32.3,15.3-41.9   c0.2-0.3,0.3-0.5,0.5-0.8c0,0,0,0,0,0C213.6,50.4,217.7,45.3,222.4,40.6L222.4,40.6z M162.3,122.9c-0.1-1.3-0.2-2.6-0.3-3.9   c-0.2-2.6-0.2-5.3-0.2-8l0,0c0-4.9,0.3-9.7,0.8-14.3c0.1-0.9,0.2-1.7,0.3-2.6c0.3-2.5,0.7-5,1.2-7.4c1.6-8.6,4-16.5,6.8-23.6   c0.6-1.5,1.2-3,1.8-4.4c0.5-1.1,1-2.2,1.5-3.2c0.8-1.6,1.5-3.2,2.3-4.7c0.8-1.5,1.6-3,2.4-4.4c0.6-1.1,1.3-2.2,1.9-3.3   c3.4-5.6,6.8-10.4,9.8-14.1l0,0l9.4,9.4c0,0,1.9,2,2.3,4.6c0.1,0.7,0.1,1.3,0.1,1.9c0,0.6-0.2,1.1-0.3,1.7c-0.1,0.5-0.3,1-0.5,1.3   c-0.1,0.2-0.2,0.4-0.3,0.5c-0.1,0.2-0.2,0.3-0.3,0.4c-0.3,0.4-0.6,0.8-0.8,1.3c-0.3,0.4-0.6,0.9-0.8,1.3c-0.3,0.6-0.7,1.1-1,1.7   l0,0l0,0c-0.2,0.4-0.4,0.7-0.6,1.1l0,0c0,0,0,0,0,0l0,0v0l0,0c-0.3,0.5-0.6,0.9-0.8,1.4c-0.6,1-1.1,2-1.7,3   c-0.8,1.6-1.7,3.2-2.5,4.9s-1.6,3.5-2.3,5.3c-1.7,4.3-3.3,8.9-4.6,13.8c-0.4,1.4-0.7,2.8-1,4.3c-0.3,1.5-0.6,3-0.9,4.5   c-0.2,1.3-0.4,2.6-0.6,4l0,0c0,0,0,0,0,0c0,0.2-0.1,0.4-0.1,0.6c0,0.1,0,0.1,0,0.2l0,0c0,0.2-0.1,0.5-0.1,0.8   c0,0.2-0.1,0.4-0.1,0.7l0,0l0,0c0,0.4-0.1,0.8-0.1,1.3l0,0l0,0c0,0.4-0.1,0.8-0.1,1.2l0,0l0,0c0,0.2,0,0.4-0.1,0.7   c0,0.3,0,0.5-0.1,0.8l0,0c0,0.4-0.1,0.8-0.1,1.1l0,0c0,0.2,0,0.3,0,0.5c0,0.4,0,0.8-0.1,1.1l0,0c0,0.2,0,0.5,0,0.7   c0,0.1,0,0.2,0,0.3l0,0l0,0c0,0.6,0,1.2-0.1,1.8c0,0,0,0,0,0c0,0.2,0,0.5,0,0.7c0,0.1,0,0.1,0,0.2l0,0l0,0c0,0.1,0,0.1,0,0.2   c0,0.8,0,1.7,0,2.5c0,0,0,0,0,0l0,0l0,0l0,0c0,0,0,0,0,0c0,0.3,0,0.7,0,1c0,0,0,0.1,0,0.1l0,0c0,0.7,0,1.5,0.1,2.3   c0,0.4,0,0.8,0.1,1.2c0,0,0,0.1,0,0.1c0.1,1.2,0.2,2.4,0.3,3.6c0,0.3,0.1,0.5,0.1,0.8c0,0.1,0,0.2,0,0.2c0,0.2,0.1,0.3,0.1,0.5   c0,0.1,0,0.2,0.1,0.3c0,0.1,0.1,0.3,0.1,0.4c0,0.1,0.1,0.2,0.1,0.2c0,0.1,0.1,0.2,0.1,0.3c0,0.1,0.1,0.2,0.1,0.2   c0.1,0.1,0.1,0.2,0.2,0.3c0,0.1,0.1,0.1,0.1,0.2c0.1,0.1,0.1,0.2,0.2,0.3c0,0.1,0.1,0.1,0.1,0.2c0.1,0.1,0.2,0.2,0.2,0.3   c0,0,0.1,0.1,0.1,0.1c0.1,0.1,0.2,0.2,0.4,0.4c0,0,0,0,0.1,0c0.1,0.1,0.2,0.2,0.3,0.3c0,0,0.1,0.1,0.1,0.1   c0.1,0.1,0.2,0.1,0.3,0.2c0.1,0,0.1,0.1,0.2,0.1c0.1,0,0.2,0.1,0.3,0.1c0.1,0,0.1,0,0.2,0.1c0.1,0,0.2,0.1,0.3,0.1   c0.1,0,0.1,0,0.2,0.1c0.1,0,0.2,0,0.3,0.1c0.1,0,0.1,0,0.2,0c0.1,0,0.2,0,0.3,0.1c0.1,0,0.1,0,0.2,0c0.1,0,0.2,0,0.4,0   c0,0,0.1,0,0.1,0c0.2,0,0.3,0,0.5,0c0,0,0,0,0,0s0,0,0,0c0.2,0,0.5,0,0.7,0c0,0,0.1,0,0.1,0c0.2,0,0.4-0.1,0.7-0.1   c0,0,0.1,0,0.1,0c0.2,0,0.4-0.1,0.6-0.1c0,0,0.1,0,0.1,0c0.2-0.1,0.4-0.1,0.6-0.2c0,0,0,0,0,0c0.2-0.1,0.4-0.1,0.6-0.2   c0,0,0.1,0,0.1,0c0.2-0.1,0.4-0.2,0.5-0.2c0,0,0.1,0,0.1,0c0.2-0.1,0.3-0.2,0.5-0.3c0,0,0,0,0.1,0c0.1-0.1,0.3-0.2,0.4-0.3l0,0   c0,0,0.2-0.1,0.4-0.3c0.1-0.1,0.2-0.2,0.3-0.3c0.1-0.1,0.2-0.2,0.4-0.3c0.4-0.3,0.8-0.6,1.3-1c3.5-2.7,10.6-8,19.5-14.5   c0.5-0.4,1.1-0.8,1.6-1.2c0.6-0.4,1.2-0.9,1.9-1.3c0.7-0.5,1.4-1,2.1-1.5c1.3-0.9,2.6-1.9,4-2.9c0.5-0.4,1.1-0.8,1.6-1.1   c1.1-0.8,2.1-1.5,3.2-2.3c2.1-1.4,4.1-2.9,6.2-4.4c1.4-1,2.8-1.9,4.2-2.9c1.4-1,2.8-1.9,4.3-2.9c2.8-1.9,5.7-3.8,8.5-5.6   c0.7-0.5,1.4-0.9,2.1-1.3c1.4-0.9,2.8-1.8,4.2-2.6c4.1-2.6,8.1-4.9,11.9-7c1.9-1,3.7-2,5.4-2.9c2.3-1.2,4.5-2.2,6.5-3.1   c1.5-0.6,2.9-1.2,4.2-1.6c2.2-0.7,4.1-1.1,5.6-1.1s3.4,0.4,5.6,1.1c1.3,0.4,2.7,0.9,4.2,1.6c2.5,1.1,5.3,2.4,8.3,4   c1.2,0.6,2.4,1.3,3.7,2c3.8,2.1,7.8,4.5,11.9,7c1.4,0.9,2.8,1.7,4.2,2.6c0.7,0.4,1.4,0.9,2.1,1.3c2.1,1.4,4.3,2.8,6.4,4.2   c5.7,3.8,11.4,7.7,16.9,11.6c1.4,1,2.7,1.9,4.1,2.9c1.3,0.9,2.6,1.9,3.9,2.8c0.6,0.5,1.3,0.9,1.9,1.4c1.3,0.9,2.5,1.8,3.7,2.7   c4.2,3.1,8.1,5.9,11.3,8.3c0.9,0.7,1.8,1.4,2.7,2c0.8,0.6,1.6,1.2,2.4,1.8c2.7,2,4.6,3.5,5.6,4.3c0.5,0.4,0.8,0.6,0.8,0.6   c0.1,0.1,0.3,0.2,0.4,0.3c0,0,0,0,0.1,0c0.1,0.1,0.3,0.2,0.5,0.3c0,0,0.1,0,0.1,0c0.2,0.1,0.3,0.2,0.5,0.2c0,0,0.1,0,0.1,0   c0.2,0.1,0.4,0.2,0.6,0.2c0,0,0,0,0,0c0.2,0.1,0.4,0.1,0.6,0.2c0,0,0.1,0,0.1,0c0.2,0.1,0.4,0.1,0.6,0.1c0,0,0.1,0,0.1,0   c0.2,0,0.4,0.1,0.7,0.1c0,0,0.1,0,0.1,0c0.2,0,0.5,0,0.7,0c0,0,0,0,0,0c0,0,0,0,0,0c0.2,0,0.3,0,0.5,0c0,0,0.1,0,0.1,0   c0.1,0,0.2,0,0.4,0c0.1,0,0.1,0,0.2,0c0.1,0,0.2,0,0.3-0.1c0.1,0,0.1,0,0.2,0c0.1,0,0.2,0,0.3-0.1c0.1,0,0.1,0,0.2-0.1   c0.1,0,0.2-0.1,0.3-0.1c0.1,0,0.1,0,0.2-0.1c0.1,0,0.2-0.1,0.3-0.1c0.1,0,0.1-0.1,0.2-0.1c0.1-0.1,0.2-0.1,0.3-0.2   c0,0,0.1-0.1,0.1-0.1c0.1-0.1,0.2-0.2,0.3-0.3c0,0,0,0,0,0c0.1-0.1,0.2-0.2,0.4-0.4c0,0,0.1-0.1,0.1-0.1c0.1-0.1,0.2-0.2,0.2-0.3   c0-0.1,0.1-0.1,0.1-0.2c0.1-0.1,0.1-0.2,0.2-0.3c0-0.1,0.1-0.1,0.1-0.2c0.1-0.1,0.1-0.2,0.2-0.3c0-0.1,0.1-0.2,0.1-0.2   c0-0.1,0.1-0.2,0.1-0.3c0-0.1,0.1-0.2,0.1-0.2c0-0.1,0.1-0.3,0.1-0.4c0-0.1,0-0.2,0.1-0.3c0-0.2,0.1-0.3,0.1-0.5   c0-0.1,0-0.2,0-0.2c0-0.2,0.1-0.5,0.1-0.8c0,0,0,0,0,0c0.1-1.2,0.2-2.5,0.3-3.7c0.1-1.2,0.1-2.4,0.2-3.5c0-0.4,0-0.8,0-1.1   c0-0.9,0-1.8,0-2.7c0-0.3,0-0.6,0-0.8c0,0,0,0,0,0c0-0.6,0-1.2-0.1-1.8l0,0c0-0.3,0-0.7-0.1-1c0-0.6-0.1-1.1-0.1-1.6   c0-0.4-0.1-0.8-0.1-1.1c0-0.3,0-0.6-0.1-0.8c0-0.2,0-0.4-0.1-0.7c0-0.4-0.1-0.8-0.1-1.2l0,0c0-0.1,0-0.2,0-0.4   c0-0.3-0.1-0.6-0.1-0.9l0,0c-0.1-0.5-0.1-0.9-0.2-1.4l0,0l0,0c0-0.2,0-0.3-0.1-0.5c0,0,0-0.1,0-0.1c0-0.1,0-0.2,0-0.3c0,0,0,0,0,0   c-0.1-0.8-0.2-1.6-0.4-2.3c-0.1-0.5-0.2-1-0.2-1.5c-0.1-0.8-0.3-1.5-0.4-2.3c-0.1-0.5-0.2-1-0.3-1.5c-0.2-0.9-0.4-1.8-0.6-2.7   c-0.1-0.3-0.1-0.7-0.2-1c-0.3-1.2-0.6-2.4-0.9-3.5c-0.4-1.4-0.8-2.7-1.2-4.1c-0.9-2.7-1.8-5.2-2.8-7.6c-0.8-1.8-1.5-3.6-2.3-5.3   c-1.6-3.4-3.3-6.5-5-9.4l0,0c0,0,0,0,0,0l0,0c-0.2-0.4-0.4-0.7-0.6-1.1l0,0c-0.9-1.5-1.8-2.9-2.7-4.3c-0.7-1-1.7-3.2-1.3-5.9   c0.4-2.7,2.3-4.6,2.3-4.6l9.4-9.4c2.5,3.1,5.3,6.9,8.1,11.4c0.4,0.6,0.8,1.3,1.2,1.9c0.8,1.3,1.6,2.7,2.4,4.1   c0.4,0.7,0.8,1.4,1.2,2.2c1.2,2.2,2.4,4.5,3.5,7c0.8,1.6,1.5,3.3,2.2,5c1.1,2.6,2.1,5.3,3.1,8.1c1.9,5.6,3.6,11.7,4.8,18.1   c0.5,2.4,0.8,4.9,1.2,7.4c0.1,0.8,0.2,1.7,0.3,2.6c0.5,4.6,0.8,9.3,0.8,14.3l0,0c0,2.7-0.1,5.4-0.2,8c-0.1,1.3-0.2,2.6-0.3,3.9   c-0.2,2.6-0.5,5.1-0.9,7.5c-2.2,14.7-6.7,27.4-11.8,37.9c-0.9,1.7-1.7,3.4-2.6,5.1c-0.9,1.6-1.8,3.2-2.7,4.7   c-0.4,0.8-0.9,1.5-1.3,2.2c-0.6,1-1.2,2-1.9,2.9c-0.7,1.1-1.4,2.1-2.1,3.1c-1.3,1.9-2.6,3.6-3.8,5.2c-1.6,2.1-3.1,3.9-4.5,5.5   c-0.3,0.3-0.7,0.8-1.3,1.2c-0.2,0.2-0.4,0.3-0.7,0.5c-0.3,0.2-0.7,0.4-1.1,0.6c-0.5,0.2-1,0.4-1.6,0.5c-0.1,0-0.2,0-0.4,0.1   c-0.2,0-0.4,0.1-0.6,0.1c-0.2,0-0.4,0-0.6,0l0,0c-0.1,0-0.2,0-0.3,0c-0.1,0-0.1,0-0.2,0c-0.1,0-0.2,0-0.3,0c-0.1,0-0.2,0-0.3,0   c-0.1,0-0.2,0-0.3,0c-0.1,0-0.2,0-0.3-0.1c-0.1,0-0.2,0-0.3-0.1c-0.1,0-0.2-0.1-0.3-0.1c-0.1,0-0.2,0-0.3-0.1   c-0.1,0-0.2-0.1-0.3-0.1c-0.1,0-0.2-0.1-0.2-0.1c-0.1,0-0.2-0.1-0.3-0.1c-0.1,0-0.2-0.1-0.2-0.1c-0.1,0-0.2-0.1-0.2-0.1   c-0.1,0-0.1-0.1-0.2-0.1c-0.1,0-0.2-0.1-0.2-0.1c-0.1,0-0.1-0.1-0.2-0.1c-0.1,0-0.1-0.1-0.2-0.1c-0.1,0-0.1-0.1-0.2-0.1   c-0.1,0-0.1-0.1-0.2-0.1c0,0-0.1-0.1-0.1-0.1c-0.1,0-0.1-0.1-0.2-0.1c0,0-0.1-0.1-0.1-0.1c0,0-0.1-0.1-0.1-0.1   c0,0-0.1-0.1-0.1-0.1c0,0-0.1-0.1-0.1-0.1c0,0-0.1,0-0.1-0.1c0,0-0.1,0-0.1-0.1c0,0,0,0-0.1,0c0,0,0,0,0,0c0,0-0.1-0.1-0.1-0.1   l-7.9-8.2l-7.9-8.2l-70.7-73.5l-70.7,73.5l-7.9,8.2l-7.9,8.2c0,0,0,0,0,0l0,0c0,0,0,0-0.1,0.1c0,0,0,0,0,0c0,0-0.1,0.1-0.1,0.1   c0,0,0,0-0.1,0.1c0,0-0.1,0.1-0.1,0.1c0,0-0.1,0-0.1,0.1c0,0-0.1,0.1-0.2,0.1c0,0-0.1,0.1-0.1,0.1c-0.1,0-0.1,0.1-0.2,0.1   c0,0-0.1,0.1-0.1,0.1c-0.1,0-0.1,0.1-0.2,0.1c0,0-0.1,0.1-0.2,0.1c-0.1,0-0.1,0.1-0.2,0.1c-0.1,0-0.1,0.1-0.2,0.1   c-0.1,0-0.2,0.1-0.2,0.1c-0.1,0-0.1,0.1-0.2,0.1c-0.1,0-0.2,0.1-0.2,0.1c-0.1,0-0.2,0.1-0.2,0.1c-0.1,0-0.2,0.1-0.3,0.1   c-0.1,0-0.2,0.1-0.2,0.1c-0.1,0-0.2,0.1-0.3,0.1c-0.1,0-0.2,0-0.3,0.1c-0.1,0-0.2,0.1-0.3,0.1c-0.1,0-0.2,0-0.3,0.1   c-0.1,0-0.2,0-0.3,0.1c-0.1,0-0.2,0-0.3,0c-0.1,0-0.2,0-0.3,0c-0.1,0-0.2,0-0.3,0c-0.1,0-0.1,0-0.2,0c-0.1,0-0.2,0-0.3,0l0,0   c-0.5,0-0.9-0.1-1.3-0.1c-0.8-0.1-1.5-0.4-2.1-0.7c-0.3-0.1-0.6-0.3-0.8-0.4c-0.5-0.3-0.9-0.6-1.3-0.9c-0.3-0.3-0.6-0.6-0.8-0.8   c-1-1.2-2.1-2.5-3.3-4c-2-2.5-4.1-5.3-6.3-8.6c-0.9-1.3-1.8-2.7-2.7-4.1c-0.4-0.7-0.9-1.5-1.3-2.2c-0.9-1.5-1.8-3.1-2.7-4.7   c-0.9-1.6-1.7-3.3-2.6-5.1c-5.1-10.5-9.6-23.2-11.8-37.9C162.8,128,162.5,125.5,162.3,122.9L162.3,122.9z"></path>		<polygon class="st0" points="91,297.9 97.2,297.9 96.5,274.9   "></polygon>		<path class="st0" d="M281.2,295.5h-5.5l-1.4,13.1h5.5c0.3,0,0.6,0,1-0.1c0.2,0,0.3,0,0.5-0.1c0.6-0.1,1.2-0.4,1.7-0.8   c0.3-0.2,0.5-0.4,0.7-0.7c0.8-1,1.3-2.5,1.6-4.8C285.8,296.8,283.8,295.5,281.2,295.5L281.2,295.5z"></path>		<path class="st0" d="M285.9,273.8c-0.1-0.3-0.2-0.5-0.4-0.7c-0.6-0.9-1.6-1.2-2.6-1.2h-4.4l-1.3,11.1h4.4c1.4,0,2.7-0.6,3.6-2.2   c0.1-0.2,0.2-0.5,0.4-0.7c0.1-0.2,0.1-0.4,0.2-0.6c0.2-0.6,0.3-1.3,0.4-2.1c0-0.3,0-0.5,0.1-0.7c0-0.2,0-0.5,0-0.7   c0-0.6-0.1-1.2-0.2-1.7C286,274,285.9,273.9,285.9,273.8L285.9,273.8z"></path>		<path class="st0" d="M522,273.9h-5l-1.1,10.4h5c2.8,0,4-1.7,4.4-5.2c0.1-1.3,0.1-2.4-0.2-3.2C524.8,274.5,523.8,273.9,522,273.9   L522,273.9z"></path>		<path class="st0" d="M597.6,277.7l2.4-18.3c0.4-2.9-1.1-5.8-3.6-7.2c-2.5-1.4-9.6-4.6-21.2-4.6c-10,0-18.1,2.6-24,7.8   c-1.1,1-2.2,2.1-3.2,3.3c-0.4-0.6-0.8-1.1-1.3-1.6c-4.7-5.2-11.9-7.8-22-7.8h-23.7c-0.7,0-1.4,0.1-2.1,0.3   c-0.7-0.2-1.3-0.3-2.1-0.3h-42c-0.5,0-0.9,0-1.4,0.1c-0.4-0.1-0.9-0.1-1.3-0.1h-45.5c-1.2,0-2.3,0.3-3.3,0.8   c-3.7-1.2-9.1-2.4-16.1-2.4c-8.7,0-15.9,2-21.5,5.8c-0.3-0.7-0.7-1.3-1.2-1.8c-1.4-1.5-3.3-2.4-5.3-2.4h-18.4   c-2.3,0-4.3,1.1-5.6,2.7c-1.3-1.7-3.3-2.7-5.6-2.7h-18.4c-3.1,0-5.8,2-6.8,4.8c-4.3-3.2-10.1-4.8-17.8-4.8h-24.1   c-0.7,0-1.4,0.1-2.1,0.3c-0.7-0.2-1.3-0.3-2.1-0.3h-42c-0.5,0-0.9,0-1.4,0.1c-0.4-0.1-0.9-0.1-1.3-0.1h-45.5   c-1.2,0-2.3,0.3-3.3,0.8c-3.7-1.2-9.1-2.4-16.1-2.4c-10,0-18.1,2.6-24,7.8c-2.1,1.9-4,4-5.4,6.5l-0.5-6c-0.3-3.7-3.4-6.6-7.2-6.6   h-26c-1.3,0-2.5,0.4-3.6,1c-1.1-0.6-2.3-1-3.6-1H59.9c-1.5,0-3,0.5-4.2,1.3c-1.2-0.8-2.6-1.3-4.2-1.3H34c-1.5,0-3,0.5-4.2,1.3   c-1.2-0.8-2.6-1.3-4.2-1.3H7.2c-1.9,0-3.8,0.8-5.2,2.2c-1.3,1.4-2.1,3.3-2,5.2l2,67.6c0.1,3.9,3.3,7,7.2,7h20.8   c2.2,0,4.2-1,5.5-2.6c1.3,1.6,3.3,2.6,5.5,2.6h20.8c0.6,0,1.2-0.1,1.8-0.2c0.6,0.1,1.2,0.2,1.8,0.2h18.8c3.3,0,6.1-2.2,7-5.4   l0.2-0.8c0.5,3.5,3.5,6.2,7.1,6.2h18.8c1.2,0,2.4-0.3,3.5-0.9c4.6,1.7,10,2.5,16.2,2.5c15.8,0,26.2-5.7,31.2-17.1l-0.8,7.5   c-0.2,2,0.4,4,1.8,5.6c1.4,1.5,3.3,2.4,5.3,2.4h18.4c3.7,0,6.8-2.8,7.1-6.4l4.6-43.1h1.8l-4.5,41.6c-0.2,2,0.4,4.1,1.8,5.6   c1.4,1.5,3.3,2.4,5.3,2.4h42c0.7,0,1.4-0.1,2.1-0.3c0.7,0.2,1.3,0.3,2.1,0.3h24.4c10.1,0,17.9-2.8,23.2-8.5   c0.2-0.2,0.4-0.4,0.5-0.6c0.5,0.8,1.1,1.5,1.7,2.2c5.1,5.6,12.6,8.5,22.6,8.5c9.4,0,17.1-2.6,22.8-7.5c0.3,0.3,0.5,0.5,0.8,0.8   c5.9,4.5,14.1,6.8,24.2,6.8c15.8,0,26.2-5.7,31.2-17.1l-0.8,7.5c-0.2,2,0.4,4,1.8,5.6c1.4,1.5,3.3,2.4,5.3,2.4h18.4   c3.7,0,6.8-2.8,7.1-6.4l4.6-43.1h1.8l-4.5,41.6c-0.2,2,0.4,4.1,1.8,5.6c1.4,1.5,3.3,2.4,5.3,2.4h42c0.7,0,1.4-0.1,2.1-0.3   c0.7,0.2,1.3,0.3,2.1,0.3h18c2,0,3.8-0.8,5.2-2.2c1.3,1.4,3.2,2.2,5.2,2.2h20.8c1.4,0,2.7-0.4,3.8-1.1c4.7,1.8,10.3,2.7,16.7,2.7   c20.7,0,32.2-9.8,34.2-29.2c1.2-11.3-1.3-17-3.8-20.3C595.8,282.2,597.3,280.1,597.6,277.7L597.6,277.7z M41,324l-1.4-38.3   L29.9,324H9.2l-2-67.6h18.5L24,294.7l10-38.3h17.6l1.6,38.3l6.7-38.3h18.2l-19.6,65.5c-0.2,0.7-0.3,1.4-0.3,2.1l0,0   C58.2,324,41,324,41,324z M98.4,324l-0.6-10.7H86.9L84.1,324h-15l0,0h-3.8l14.2-47.4l6-20.1l0-0.1h26l3.3,40.1   c-1.5,1.1-2.5,2.8-2.7,4.7l-2.3,18.1c-0.2,1.6,0.2,3.2,1,4.6l0,0L98.4,324L98.4,324z M163.9,302.8c-0.3,2.7-0.8,5.2-1.5,7.3   c-0.3,0.9-0.6,1.7-0.9,2.5c-0.5,1.2-1.1,2.3-1.7,3.2c-1.5,2.3-3.3,4.1-5.4,5.6c-4.6,3-10.5,4.2-17.5,4.2c-4.9,0-9-0.6-12.5-1.7   l0,0c-1.3-0.4-2.5-0.9-3.6-1.4c-0.4-0.2-0.7-0.4-1.1-0.5c-0.4-0.2-0.8-0.5-1.3-0.7c-0.5-0.3-1-0.6-1.4-1l2.3-18.1   c0.5,0.3,1,0.6,1.6,1c0.3,0.2,0.6,0.3,0.9,0.5c0.3,0.2,0.6,0.3,0.9,0.4c0.3,0.2,0.7,0.3,1,0.4c1.4,0.6,2.9,1.1,4.5,1.5   c0.8,0.2,1.6,0.4,2.5,0.6c2.1,0.4,4.4,0.6,6.7,0.6c0.3,0,0.7,0,1,0c1,0,1.8-0.1,2.6-0.2c1.5-0.2,2.7-0.6,3.5-1.3   c0.1-0.1,0.3-0.2,0.4-0.3c0.2-0.2,0.4-0.5,0.6-0.8c0.1-0.1,0.1-0.3,0.2-0.4c0.1-0.3,0.2-0.6,0.2-1c0.1-0.6,0-1.1-0.1-1.5   c-0.3-0.9-1-1.5-1.9-1.9c-0.3-0.1-0.6-0.3-1-0.4c-0.5-0.2-1.1-0.3-1.7-0.4c-0.4-0.1-0.8-0.1-1.2-0.2c-0.9-0.1-1.9-0.2-2.7-0.4   c-0.7-0.1-1.3-0.2-2-0.3c-0.9-0.2-1.8-0.4-2.6-0.6c-0.8-0.2-1.6-0.4-2.3-0.7c-0.2-0.1-0.4-0.2-0.7-0.2c-0.6-0.2-1.2-0.5-1.7-0.8   c-0.3-0.2-0.6-0.3-0.8-0.5c-0.2-0.1-0.3-0.2-0.5-0.3c-0.6-0.4-1.2-0.9-1.7-1.4c0,0,0,0,0,0c0,0,0,0,0,0c-0.6-0.6-1-1.2-1.5-1.9   c-0.7-1.2-1.3-2.6-1.6-4.2c-0.1-0.7-0.2-1.3-0.3-2.1c-0.1-0.7-0.1-1.5-0.1-2.3c0-1.7,0.1-3.5,0.3-5.5c0.1-1.1,0.3-2.2,0.5-3.2   c0.2-1,0.5-2.1,0.8-3c0.2-0.8,0.5-1.5,0.8-2.3c0.3-0.7,0.6-1.4,1-2.1c0.4-0.7,0.7-1.3,1.1-1.9c0.2-0.3,0.4-0.6,0.6-0.9   c0.8-1,1.6-2,2.6-2.9c0.9-0.9,2-1.7,3.1-2.4c1-0.6,2-1.1,3.1-1.6c0.9-0.4,1.9-0.7,2.9-1c1-0.3,2.1-0.5,3.2-0.7   c1.1-0.2,2.3-0.4,3.5-0.5c1.2-0.1,2.5-0.2,3.8-0.2c4.9,0,9,0.7,12.2,1.5l-1.9,17.3c0,0.3,0,0.7,0,1c-0.8-0.2-1.7-0.4-2.5-0.6   c-1.4-0.3-2.9-0.5-4.3-0.7c-1.4-0.2-2.8-0.2-4-0.2c-0.7,0-1.3,0-1.9,0.1c-0.6,0-1.1,0.1-1.7,0.2c-0.8,0.1-1.4,0.3-2,0.5   c-0.4,0.2-0.7,0.3-1,0.5c-1.1,0.7-1.7,1.6-1.8,2.8c0,0.2,0,0.4,0,0.5c0,0.3,0.1,0.6,0.2,0.9c0.2,0.5,0.5,0.9,1,1.2   c0.2,0.2,0.5,0.3,0.8,0.4c1.1,0.4,2.4,0.6,4,0.8c0.9,0.1,1.7,0.2,2.5,0.4c0.8,0.1,1.6,0.3,2.3,0.4c0.8,0.2,1.5,0.3,2.2,0.5   c1.4,0.4,2.6,0.8,3.8,1.3c0.4,0.2,0.8,0.4,1.2,0.6c1.2,0.6,2.2,1.4,3,2.3c0.2,0.2,0.4,0.4,0.6,0.6c0.4,0.4,0.7,0.9,1,1.4   c0.3,0.5,0.5,1,0.8,1.6c0.2,0.6,0.4,1.1,0.6,1.8c0.2,0.6,0.3,1.2,0.4,1.8c0.1,0.4,0.1,0.8,0.2,1.2c0.1,0.7,0.1,1.5,0.1,2.3   C164.2,299,164.2,300.8,163.9,302.8L163.9,302.8z M170.7,291c-0.8-3.6-2.1-6-3.4-7.8c0.8-0.4,1.5-0.9,2.1-1.6h2.3L170.7,291   L170.7,291z M198.1,274.4l-5.3,49.6h-18.4l5.3-49.6h-13.6l2-18h41l-1.9,18H198.1z M209,324L209,324l4.6-42.6l2.7-24.9h38.9   l-1.9,18h-20.6l-0.6,5.9h20.6l-1.9,18h-20.6l-0.8,7.7h20.6l-1.9,17.2c0,0.3,0,0.5,0,0.8l0,0L209,324L209,324z M297.5,317.7   c-3.6,3.9-9.3,6.2-18,6.2h-21.3h-3.1l7.3-67.6h24.1c1,0,2,0,2.9,0.1c0.9,0.1,1.8,0.2,2.6,0.3c0.1,0,0.2,0,0.3,0.1   c1.4,0.2,2.7,0.6,3.9,1c0.2,0.1,0.5,0.2,0.7,0.3c0.9,0.4,1.7,0.8,2.4,1.2c0.5,0.3,0.9,0.6,1.3,1c0.6,0.5,1.2,1.1,1.6,1.7   c0.2,0.2,0.3,0.4,0.5,0.7c0.1,0.2,0.2,0.4,0.4,0.6l0,0l-2.5,22.5l0,0c-0.2,0.3-0.4,0.5-0.7,0.7c-0.6,0.6-1.2,1.1-1.9,1.5   c0.8,0.4,1.5,1,2.1,1.6l-1.2,10.9c-0.6,5.2-0.3,9.9,0.8,14C299.2,315.8,298.4,316.8,297.5,317.7L297.5,317.7z M342.9,321.9   c-1.9,1.2-4,2-6.2,2.6c-0.7,0.2-1.5,0.4-2.2,0.5c-2.2,0.4-4.5,0.6-6.8,0.6s-4.5-0.2-6.6-0.6c-0.1,0-0.2,0-0.4-0.1   c-0.6-0.1-1.3-0.3-1.9-0.5c-2.1-0.6-4-1.4-5.7-2.6c-1.2-0.9-2.4-1.9-3.3-3.1c-0.4-0.6-0.8-1.1-1.2-1.8c-0.3-0.6-0.6-1.2-0.9-1.8   c0,0,0,0,0,0c-0.3-0.7-0.5-1.4-0.8-2.1c-0.2-0.7-0.4-1.5-0.5-2.3c-0.1-0.4-0.1-0.9-0.2-1.4c-0.1-0.9-0.2-1.9-0.2-2.9   c0-1.5,0-3.2,0.2-5l4.3-39.4l0.6-5.7h18.4l-4.7,43.2c-0.1,0.8-0.1,1.6-0.1,2.2c0,1,0.1,1.8,0.2,2.5c0.2,0.7,0.4,1.2,0.7,1.7   c0.3,0.4,0.7,0.7,1.2,1c0.3,0.2,0.6,0.3,1,0.3c0.5,0.1,1.2,0.2,1.8,0.2c0.4,0,0.9,0,1.3-0.1c0.4,0,0.8-0.1,1.1-0.2   c0.4-0.1,0.7-0.3,1-0.4c0.5-0.3,0.9-0.7,1.3-1.2c0.9-1.2,1.5-3,1.8-5.9l4.7-43.2h18.4l-0.4,4c-3.1,4.4-5,9.9-5.7,16.4   c-0.6,5.4-0.7,11.8,2,17.3l-0.2,1.6c-2.2,1-3.8,3.2-4.1,5.6l-1.9,15.3l0,0c-0.5,0.6-1,1.2-1.5,1.7   C346,319.7,344.5,320.9,342.9,321.9L342.9,321.9z M402.4,302.8c-0.6,6-2.3,10.6-4.7,14c-1.1,1.5-2.4,2.9-3.9,4   c-0.9,0.7-1.8,1.2-2.8,1.7c-4.3,2.2-9.6,3.1-15.6,3.1c-7.3,0-13-1.4-17.2-3.6c-0.6-0.3-1.2-0.7-1.8-1.1c-0.3-0.2-0.6-0.4-0.8-0.6   l0.1-1.1l2.2-17c0.5,0.3,1,0.6,1.6,1c0.3,0.2,0.6,0.3,0.9,0.5c0.3,0.1,0.5,0.3,0.8,0.4c0.3,0.1,0.6,0.3,0.9,0.4   c1.1,0.5,2.3,0.9,3.6,1.3c0.4,0.1,0.8,0.2,1.2,0.3c0.8,0.2,1.6,0.4,2.5,0.6c0.8,0.2,1.7,0.3,2.6,0.4c1.3,0.2,2.7,0.2,4.1,0.2   c2.1,0,3.7-0.2,5-0.5c0.9-0.2,1.6-0.6,2.1-1c0.8-0.6,1.3-1.5,1.4-2.5c0-0.4,0-0.8,0-1.1c0-0.3-0.1-0.5-0.2-0.8   c-0.1-0.2-0.3-0.4-0.4-0.6c-0.1-0.1-0.2-0.2-0.3-0.3c-1.1-1-2.9-1.4-4.9-1.6c-0.9-0.1-1.9-0.2-2.7-0.4c-0.7-0.1-1.3-0.2-2-0.3   c-0.9-0.2-1.8-0.4-2.6-0.6c-0.8-0.2-1.6-0.4-2.3-0.7c-0.2-0.1-0.4-0.1-0.6-0.2c-0.7-0.2-1.3-0.5-1.8-0.8c-0.2-0.1-0.5-0.2-0.7-0.4   c-0.4-0.2-0.8-0.5-1.1-0.8c-0.3-0.2-0.6-0.5-0.9-0.8c-0.5-0.4-0.9-0.9-1.3-1.4l0,0c-0.2-0.2-0.4-0.5-0.5-0.8   c-0.2-0.4-0.4-0.8-0.6-1.2c-0.3-0.6-0.6-1.3-0.8-2.1c-0.2-0.9-0.4-1.9-0.5-3c-0.1-0.7-0.1-1.5-0.1-2.3c0-1.7,0.1-3.5,0.3-5.5   c0.1-1.1,0.3-2.2,0.5-3.2s0.5-2.1,0.8-3c0.4-1.2,0.8-2.3,1.3-3.3c0.6-1.4,1.4-2.7,2.3-3.9c0.2-0.3,0.5-0.6,0.7-0.9   c4.4-5.4,11.6-8.3,21.6-8.3c4.9,0,9,0.7,12.2,1.5l-1.9,17.3c0,0.3,0,0.7,0,1c-0.2-0.1-0.4-0.1-0.6-0.2c-0.6-0.2-1.2-0.3-1.9-0.4   c-1.4-0.3-2.8-0.5-4.2-0.7c-1.5-0.2-2.9-0.2-4.2-0.2c-2.4,0-4.3,0.3-5.6,0.8c-0.4,0.2-0.7,0.3-1,0.5c-0.4,0.3-0.8,0.6-1.1,1   c-0.1,0.2-0.2,0.4-0.3,0.6c-0.2,0.4-0.3,0.8-0.4,1.3c0,0.3,0,0.5,0,0.8c0,0.2,0.1,0.5,0.1,0.7c0.2,0.5,0.5,0.9,1,1.2   c0.2,0.2,0.5,0.3,0.8,0.4c0.3,0.1,0.6,0.2,1,0.3c0.9,0.2,1.9,0.4,3,0.5c0.9,0.1,1.7,0.2,2.5,0.4s1.6,0.3,2.3,0.4   c0.8,0.2,1.5,0.3,2.2,0.5c1.4,0.4,2.6,0.8,3.8,1.3c0.4,0.2,0.8,0.4,1.2,0.6c1.2,0.6,2.2,1.4,3,2.3c0.2,0.2,0.4,0.4,0.6,0.6   c0.4,0.4,0.7,0.9,1,1.4c0.3,0.5,0.5,1,0.8,1.6c0.2,0.6,0.4,1.1,0.6,1.8c0.1,0.3,0.2,0.6,0.2,1c0.1,0.7,0.2,1.4,0.3,2.1   C402.8,297.2,402.8,299.8,402.4,302.8L402.4,302.8z M409.2,291c-0.8-3.6-2.1-6-3.4-7.8c0.8-0.4,1.5-0.9,2.1-1.6h2.3L409.2,291   L409.2,291z M436.6,274.4l-5.3,49.6h-18.4l5.3-49.6h-13.6l2-18h41l-1.9,18L436.6,274.4L436.6,274.4z M447.5,324L447.5,324   l4.6-42.6l2.7-24.9h38.9l-1.9,18h-20.6l-0.6,5.9h20.6l-1.9,18h-20.6l-0.8,7.7h20.6l-1.9,17.2c0,0.3,0,0.5,0,0.8l0,0L447.5,324   L447.5,324z M522,324l-4.3-23.4h-3.6l-2.5,23.4h-14.9h-3.1l7.3-67.6h23.7c8.1,0,13.3,1.9,16.5,5.2c0.4,0.4,0.8,0.9,1.1,1.4   s0.7,1,0.9,1.6c0.2,0.3,0.3,0.7,0.4,1c-1.4,3.3-2.3,7-2.8,11.1c-0.4,4.2-0.6,9,0.6,13.5c-0.4,0.8-0.9,1.5-1.4,2.2   c-0.5,0.7-1,1.3-1.6,1.9c-0.9,0.9-1.8,1.7-2.9,2.4l2.4,9.2l-1.7,13.4c-0.2,1.6,0.2,3.2,1,4.6l0,0L522,324L522,324z M566.2,278.7   c0.2,0.5,0.5,0.9,1,1.2c0.2,0.2,0.5,0.3,0.8,0.4c1.1,0.4,2.4,0.6,4,0.8c0.9,0.1,1.7,0.2,2.5,0.4c0.8,0.1,1.6,0.3,2.3,0.4   c0.8,0.2,1.5,0.3,2.2,0.5c1.4,0.4,2.6,0.8,3.8,1.3c0.4,0.2,0.8,0.4,1.2,0.6c1.2,0.6,2.2,1.4,3,2.3c0.2,0.2,0.4,0.4,0.6,0.6   c0.4,0.4,0.7,0.9,1,1.4c0.3,0.5,0.5,1,0.8,1.6c0.2,0.6,0.4,1.1,0.6,1.8c0.1,0.3,0.2,0.6,0.2,1c0.1,0.7,0.2,1.4,0.3,2.1   c0.2,2.2,0.2,4.8-0.2,7.8c-0.6,6-2.3,10.6-4.7,14c-1.1,1.5-2.4,2.9-3.9,4c-0.9,0.7-1.8,1.2-2.8,1.7c-4.3,2.2-9.6,3.1-15.6,3.1   c-5.3,0-9.7-0.7-13.4-2l0,0c-0.3-0.1-0.7-0.2-1-0.4c-0.3-0.1-0.7-0.3-1-0.4c-0.6-0.3-1.2-0.6-1.8-0.9c-0.6-0.3-1.2-0.7-1.8-1.1   c-0.3-0.2-0.6-0.4-0.8-0.6l1.9-14.8l0.4-3.3c0.5,0.3,1,0.6,1.6,1c0.3,0.2,0.6,0.3,0.9,0.5c0.6,0.3,1.3,0.6,1.9,0.9   c1.4,0.6,2.9,1.1,4.5,1.5c0.8,0.2,1.6,0.4,2.5,0.6c2.1,0.4,4.4,0.6,6.7,0.6c2.1,0,3.7-0.2,5-0.5c0.9-0.2,1.6-0.6,2.1-1   c0.8-0.6,1.3-1.5,1.4-2.5c0.3-3.2-2.5-4-5.9-4.4c-0.9-0.1-1.7-0.2-2.6-0.3c-0.8-0.1-1.6-0.3-2.4-0.4c-0.8-0.1-1.5-0.3-2.2-0.5   c-1-0.3-2-0.5-2.9-0.9s-1.7-0.7-2.5-1.1c-0.5-0.3-1-0.6-1.4-0.9c-0.2-0.2-0.4-0.3-0.6-0.5c-0.8-0.7-1.5-1.5-2.1-2.5   c-0.2-0.3-0.4-0.7-0.6-1.1l0,0c-0.2-0.3-0.3-0.7-0.4-1c-0.1-0.4-0.3-0.7-0.4-1.1c-0.2-0.9-0.4-1.9-0.5-3c-0.1-0.7-0.1-1.5-0.1-2.3   c0-1.7,0.1-3.5,0.3-5.5c0.1-1.1,0.3-2.2,0.5-3.2c0.2-1,0.5-2.1,0.8-3c0.2-0.8,0.5-1.5,0.8-2.3c0.3-0.7,0.6-1.4,1-2.1   c0.1-0.2,0.2-0.4,0.3-0.6c0.3-0.5,0.5-0.9,0.8-1.3c0.2-0.3,0.4-0.6,0.6-0.9c0.8-1,1.6-2,2.6-2.9c0.9-0.9,2-1.7,3.1-2.4   c1-0.6,2-1.1,3.1-1.6c0.9-0.4,1.9-0.7,2.9-1c1-0.3,2.1-0.5,3.2-0.7c1.1-0.2,2.3-0.4,3.5-0.5c1.2-0.1,2.5-0.2,3.8-0.2   c5.2,0,9.5,0.7,12.8,1.7c1.1,0.3,2.1,0.7,2.9,1c0.8,0.3,1.5,0.7,2.1,1l-2.4,18.3c-1.5-0.9-3.5-1.6-5.5-2.2   c-0.7-0.2-1.4-0.4-2.1-0.5c-1.4-0.3-2.9-0.5-4.3-0.7c-1.4-0.2-2.8-0.2-4-0.2c-1.7,0-3.1,0.1-4.3,0.4c-0.5,0.1-0.9,0.2-1.3,0.4   c-0.4,0.2-0.7,0.3-1,0.5c-1.1,0.7-1.7,1.6-1.8,2.8c0,0.2,0,0.4,0,0.5C566,278.2,566.1,278.5,566.2,278.7L566.2,278.7z"></path>	</g></g></svg>