<svg xmlns="http://www.w3.org/2000/svg" id="Layer_1" viewBox="60 178 380 146"><defs><style>.cls-1{fill:#fff;}.cls-2{fill:#feffff;}.cls-3{fill:#0fb053;}.cls-4{fill:#d12a32;}</style></defs><polygon class="cls-1" points="71.21 279.91 71.21 264.48 98.98 203.07 71.18 203.07 71.18 188.31 121.46 188.31 121.46 203.12 94.06 264.64 121.98 264.64 121.98 279.91 71.21 279.91"></polygon><path class="cls-1" d="m125.17,279.91l6.05-91.61h36.34l8.4,91.61h-19.85l-.82-9.3h-10.57l-.82,9.3h-18.72Zm21.25-24.56h7.05l-2.44-41.02h-2.46l-2.15,41.02Z"></path><polygon class="cls-1" points="181.22 279.91 181.22 188.31 200.28 188.31 211.6 224.49 211.6 188.31 232.13 188.31 232.13 279.91 212.19 279.91 201.66 246.39 201.66 279.91 181.22 279.91"></polygon><path class="cls-1" d="m239.25,188.31h20.4v73.52s.25,5,5.21,5c5.59,0,5.84-5.12,5.84-5.12v-73.4h19.67v73.32s1.11,20.49-26.08,20.49c-25.04,0-25.04-22.19-25.04-22.19v-71.62Z"></path><rect class="cls-1" x="407.41" y="188.31" width="21.41" height="91.61"></rect><path class="cls-1" d="m346.86,207.95v8.25h-20.92v-9.51c0-2.47-.38-4.85-1.13-5.86-.75-1.01-2.05-1.51-3.9-1.51s-3.07.49-3.77,1.48c-.71.99-1.69,3.37-1.69,5.89v6.04c1.18,9.22,19.14,13.09,28.08,23.9,5.32,6.43,4.76,14.08,4.76,17.06v5.66c0,7.17-2.96,12.69-7.62,16.55-4.65,3.86-11.3,5.79-19.95,5.79s-13.89-1.8-17.75-5.41c-3.86-3.61-7.06-9.58-7.06-17.93v-8.13h20.18v9.13c0,2.85.44,4.88,1.32,6.07.88,1.2,1.75,1.79,3.86,1.79s3.59-.56,4.43-1.67c.84-1.11,1.26-3.18,1.26-6.2v-3.59c0-2.6-.6-4.85-1.79-6.76-1.19-1.91-18.64-12.23-18.64-12.23-3.97-2.81-6.82-5.83-8.54-9.06-1.72-3.23-2.58-8.34-2.58-12.78v-8.12c0-6.25,3.01-11.29,7.75-15.13,4.74-3.84,9.18-5.12,17.12-5.12,7.5,0,15.71,1.22,19.54,4.93,3.84,3.71,7.03,9.2,7.03,16.45Z"></path><path class="cls-1" d="m402.79,207.95v8.25h-20.92v-9.51c0-2.47-.38-4.85-1.13-5.86-.75-1.01-2.05-1.51-3.9-1.51s-3.07.49-3.77,1.48c-.71.99-1.69,3.37-1.69,5.89v6.04c1.18,9.22,19.14,13.09,28.08,23.9,5.32,6.43,4.76,14.08,4.76,17.06v5.66c0,7.17-2.96,12.69-7.62,16.55-4.65,3.86-11.3,5.79-19.95,5.79s-13.89-1.8-17.75-5.41c-3.86-3.61-7.06-9.58-7.06-17.93v-8.13h20.18v9.13c0,2.85.44,4.88,1.32,6.07.88,1.2,1.75,1.79,3.86,1.79s3.59-.56,4.43-1.67c.84-1.11,1.26-3.18,1.26-6.2v-3.59c0-2.6-.6-4.85-1.79-6.76-1.19-1.91-18.64-12.23-18.64-12.23-3.97-2.81-6.82-5.83-8.54-9.06-1.72-3.23-2.58-8.34-2.58-12.78v-8.12c0-6.25,3-11.29,7.75-15.13,4.74-3.84,9.18-5.12,17.12-5.12,7.5,0,15.71,1.22,19.54,4.93,3.84,3.71,7.03,9.2,7.03,16.45Z"></path><rect class="cls-3" x="70.97" y="304.46" width="120.02" height="9.52"></rect><rect class="cls-2" x="190.99" y="304.46" width="119.02" height="9.52"></rect><rect class="cls-4" x="310.01" y="304.46" width="119.02" height="9.52"></rect></svg>